<?xml version="1.0"?>
<svg xmlns="http://www.w3.org/2000/svg" version="1.2" baseProfile="tiny" width="800" height="1218" viewBox="0 0 800 1218" stroke-linecap="round" stroke-linejoin="round">
<g id="karnataka">
<path d="M 596.39 155.27 584.95 155.33 585.07 153.37 581.55 152.45 578.14 154.64 572.86 153.31 570.57 151.35 566.47 147.72 566.23 147.66 552.85 146.79 551.27 149.73 544.4 146.73 540.12 137.1 539.83 137.27 532.9 142 528.09 139.52 524.04 140.16 523.87 138.2 520.93 138.66 516.18 135.48 513.72 138.31 515.53 142.18 507.2 150.89 503.8 150.6 503.21 148.29 505.21 145.81 501.45 146.27 499.87 144.54 481.09 143.04 478.51 146.1 477.04 144.25 477.63 140.62 470.41 140.85 467.13 145.58 464.43 144.95 464.66 144.54 466.19 142.18 466.54 141.6 463.84 141.54 463.61 141.48 463.61 141.37 462.08 137.91 462.96 138.14 463.37 136.06 463.9 133.18 464.54 129.95 464.66 129.89 469.59 128.1 467.13 120.43 475.58 119.33 480.62 112.35 476.57 107.79 471.41 106.98 471.7 99.37 476.69 99.08 477.92 103.23 483.09 104.5 483.14 104.45 484.14 101.56 487.84 101.85 489.36 99.48 497.29 100.29 500.28 96.25 503.45 96.43 501.04 79.81 502.63 75.31 509.31 74.44 508.08 66.83 511.84 64.12 503.68 60.6 505.74 57.89 504.33 55.58 505.68 53.27 507.55 53.85 509.26 48.19 516.12 47.85 518 53.04 521.93 53.44 521.87 50.39 523.69 49.29 527.03 50.85 529.15 54.83 537.42 54.02 537.42 53.96 537.95 52.81 538.54 51.48 538.42 51.31 535.13 46.69 544.7 43.06 544.17 39.19 547.92 35.27 548.8 31.06 555.55 31.87 553.15 25.58 556.67 23.79 558.49 19.81 556.84 19.64 557.84 16.81 561.48 15.83 561.42 15.65 559.6 11.62 560.66 8.38 564.88 6.65 573.98 3.13 575.21 1 579.02 4.69 582.66 1.63 582.66 1.81 583.89 10.4 590.93 11.79 591.17 11.96 587.82 16.23 588.76 19.92 581.37 25.23 581.25 25.35 582.66 27.08 590.35 28.12 595.39 26.5 595.51 30.77 596.74 31.92 599.56 34.69 599.73 34.87 599.85 34.81 600.26 34.98 603.78 33.54 605.19 34.17 608.54 31.52 608.71 26.67 615.58 29.85 615.58 29.79 617.4 31 619.33 29.56 619.39 29.56 625.14 31.64 624.32 32.67 624.26 32.67 619.22 38.27 621.62 42.6 617.75 46.87 620.86 52.75 623.62 53.91 623.97 64.81 623.97 64.98 623.91 65.04 619.39 67.58 617.63 68.56 614.93 71.62 615.99 75.19 620.74 75.94 622.15 79.41 625.26 77.96 629.13 82.12 632.89 81.77 634.12 87.08 634.06 87.14 632.95 90.43 630.77 90.02 630.07 87.31 628.54 88.69 629.95 91 627.49 92.27 627.55 98.56 621.74 97.93 624.03 104.04 620.04 103.64 616.05 113.45 611.47 112.06 611.59 114.71 607.6 119.5 613.11 120.6 616.16 123.43 618.75 122.96 618.63 126.08 614.64 130 610.36 130.12 598.03 135.72 597.27 143.45 598.62 146.45 598.56 146.68 598.09 148.81 596.57 155.27 596.39 155.27 Z" id="Bidar"/>
<path d="M 462.08 137.91 463.61 141.37 463.61 141.48 463.84 141.54 466.54 141.6 466.19 142.18 464.66 144.54 464.43 144.95 467.13 145.58 470.41 140.85 477.63 140.62 477.04 144.25 478.51 146.1 481.09 143.04 499.87 144.54 501.45 146.27 505.21 145.81 503.21 148.29 503.8 150.6 507.2 150.89 515.53 142.18 513.72 138.31 516.18 135.48 520.93 138.66 523.87 138.2 524.04 140.16 528.09 139.52 532.9 142 539.83 137.27 540.12 137.1 544.4 146.73 551.27 149.73 552.85 146.79 566.23 147.66 566.47 147.72 570.57 151.35 572.86 153.31 578.14 154.64 581.55 152.45 585.07 153.37 584.95 155.33 596.39 155.27 596.39 155.33 598.03 155.85 599.68 155.91 600.5 156.6 602.55 158.39 605.37 158.16 605.49 158.33 607.71 162.72 611.47 156.83 613.11 156.83 615.4 161.04 623.09 158.79 623.62 164.16 637.29 167.62 639.22 168.08 639.93 168.25 639.87 174.6 633.47 173.27 634.35 169.06 632.12 174.2 626.9 175 626.73 179.79 619.98 178 619.92 182.5 613.05 180.2 608.77 182.5 608.95 185.45 613.17 186.89 610.77 190.06 611.65 192.77 611.76 193.12 611.29 193.29 603.61 195.95 601.91 194.79 602.73 193.12 598.21 192.54 598.68 200.16 595.45 207.14 599.09 209.39 593.4 213.43 592.34 216.72 590.17 216.08 585.24 219.43 589.41 221.68 587.65 224.39 583.83 224.22 582.31 230.74 589.94 236.79 600.03 239.39 599.85 242.22 603.08 244.81 605.9 251.33 606.83 257.22 602.84 259.58 603.14 263.97 603.14 264.14 602.55 264.66 600.5 267.03 601.03 273.2 598.33 274.12 599.15 279.32 593.16 279.26 590.7 281.1 589 279.6 589.88 276.26 584.6 277.58 580.14 275.22 578.38 270.55 574.33 270.14 573.04 271.76 569.11 270.03 564.41 271.58 560.71 268.99 555.26 268.64 552.56 271.87 550.45 269.1 547.16 269.74 546.22 273.83 540.06 273.43 534.6 275.51 533.08 270.08 530.5 269.56 529.32 267.08 525.1 272.51 521.28 271.76 520.93 276.83 523.81 277.82 525.16 281.91 519.05 284.1 514.24 283.47 514.83 287.28 516.94 287.74 515.12 291.78 514.71 292.64 507.91 288.83 501.98 291.43 500.34 284.62 503.74 281.91 500.34 280.47 500.34 277.93 494.82 277.35 489.66 282.55 485.26 281.28 484.67 283.99 480.74 285.49 480.39 287.74 475.22 286.53 474.28 290.74 472.52 291.55 472.58 302.91 472.35 302.91 469.71 302.51 470.76 298.12 466.25 297.78 464.95 295.58 460.96 297.03 460.26 300.55 457.62 300.2 456.21 303.03 457.27 307.64 453.16 305.85 453.16 303.95 450.93 304.53 451.05 300.43 446.24 300.43 437.49 303.6 432.04 303.03 429.75 304.76 429.63 307.99 425.82 309.95 424.06 310.01 422.3 310.12 422.18 310.12 420.65 308.16 420.01 308.28 418.66 309.66 415.43 309.09 416.55 305.39 418.54 304.64 417.78 300.66 406.22 299.91 407.39 294.03 413.2 294.55 413.85 291.95 402.93 290.85 406.87 283.93 416.55 285.37 416.61 287.74 424 287.45 421.77 282.49 418.13 282.32 417.31 279.83 417.37 277.01 423 276.14 421.77 271.64 417.43 268.93 416.37 271.76 411.21 270.37 411.44 262.93 417.9 262.12 418.6 259.47 416.25 249.37 416.61 241.24 411.09 246.49 409.27 246.03 409.68 241.64 404.69 238.29 409.86 235.7 410.44 233.51 404.28 234.03 405.87 229.29 403.64 225.43 399.59 228.6 389.56 229.18 387.27 232.12 385.92 232.12 384.1 232.12 383.51 232.12 383.34 231.89 379.58 226.01 373.83 225.83 372.72 224.74 363.09 215.45 356.17 213.31 356.17 213.2 357.28 209.85 358.05 207.43 358.11 207.26 352.24 203.68 352 203.51 353.29 199.64 353.41 199.24 353.82 199.24 354.53 200.1 355 199.29 358.16 194.22 361.57 193.18 369.31 197.68 369.72 205.12 371.72 205.52 372.95 202.24 370.66 196.35 381.16 194.1 380.99 192.26 383.39 191.68 384.92 194.97 388.73 194.97 389.5 199.52 396.83 199.93 396.19 197.1 401.7 196.01 403.23 203.16 408.39 203.1 410.8 197.33 413.55 196.64 413.03 193.01 404.93 191.91 406.34 181.47 399.59 181.93 399.12 175.52 407.04 171.95 401.76 171.54 401.94 167.97 405.57 166.7 404.81 163.58 400.88 162.66 399.24 153.14 414.9 151.81 416.55 144.77 416.61 144.54 419.36 145.23 418.84 143.73 420.77 142.58 427.34 141.77 426.87 132.14 433.39 132.08 433.27 124.18 442.01 124 440.49 125.73 441.6 133.81 443.66 133.75 446.94 130.18 449.41 122.27 449.41 122.21 452.52 125.04 452.75 129.77 456.74 131.56 458.27 136.98 461.84 137.27 462.08 137.91 Z" id="Kalaburagi"/>
<path d="M 223.74 266.68 222.68 282.03 233.18 283.12 230.31 290.1 231.31 300.83 228.08 301.41 227.43 309.55 214.41 309.43 212 311.62 210.24 313.41 210.71 322.53 209.01 328.41 209.01 328.53 202.38 326.8 193.28 329.97 191.05 332.62 190.99 332.68 191.76 340.47 191.87 341.45 190.88 342.03 188.18 343.7 183.6 346.47 183.31 346.01 175.8 335.57 174.98 340.59 164.47 340.76 161.13 347.39 160.78 353.51 161.07 355.76 166.12 354.89 166.29 358.24 168.11 359.34 176.97 358.59 176.09 364.47 170.16 365.63 169.34 367.64 170.81 379.76 176.68 377.39 186.12 377.51 189.53 380.28 191.41 379.3 189.41 386.11 204.67 390.2 204.31 398.97 213.82 400.53 213.58 404.91 214.99 405.55 212.06 414.9 221.27 415.76 225.97 413.4 226.14 415.76 234.88 415.99 236.18 413.05 236.88 415.7 240.99 415.7 238.99 419.74 239.58 423.95 242.1 423.95 242.04 426.84 237.35 426.9 237.06 428.05 238.7 434.57 240.81 435.67 239.7 440.57 241.1 442.13 238.46 450.15 241.46 450.67 240.81 455.05 243.22 456.38 243.28 457.01 243.63 457.3 244.33 468.38 240.63 475.47 236.59 474.38 238.41 464.22 229.6 463.65 227.78 470.8 223.62 470.8 223.33 466.76 220.74 469.7 216.99 469.42 217.4 477.72 219.57 477.96 219.57 481.42 218.87 484.07 216.28 484.53 216.17 484.3 215.23 482.11 211.82 482.22 211.77 486.26 212.59 491.46 214.47 491.05 212.41 491.69 211.71 498.49 207.31 498.78 205.02 493.13 199.09 492.67 199.09 498.44 182.31 494.4 179.44 505.76 173.16 501.38 173.74 492.61 171.75 493.36 171.46 494.63 168.17 494.74 166.59 499.36 157.2 497.51 156.96 502.3 145.81 501.49 141.65 503.98 133.08 505.3 134.96 511.59 127.33 516.26 130.15 523.99 125.34 527.34 123.81 532.07 118.59 525.55 114.77 526.82 117.82 531.32 115.18 537.03 116.89 540.09 117.18 540.67 109.84 540.84 108.08 542.98 100.98 544.36 94.71 549.96 82.38 539.63 71.41 543.32 68.18 539.92 66.78 542.05 61.44 542.86 60.62 531.32 59.09 529.48 52.28 528.26 46.53 521.69 35.15 520.82 35.09 516.67 32.22 513.38 29.28 513.03 32.69 504.38 29.11 502.53 30.51 497.51 27.76 494.97 22.18 498.09 22.01 495.84 18.96 495.15 19.66 493.13 17.9 492.55 15.43 494.4 14.97 497.63 9.86 498.55 8.22 497.8 6.93 497.86 6.75 497.92 6.81 497.92 3.29 495.55 1.47 494.74 1.88 494.63 8.1 492.78 9.27 488.97 7.45 485.74 14.44 480.32 21.54 478.99 22.83 475.07 22.89 475.01 25 474.15 26.29 474.03 27.23 473.97 26.23 477.44 26.17 478.59 28.28 481.53 33.39 479.69 36.73 481.94 40.43 480.78 43.13 476.51 47.12 477.96 49.99 475.01 51.34 472.76 51.4 471.32 49.94 468.84 49.82 468.55 49.76 468.49 53.75 462.95 45.77 461.92 50.23 458.4 50.23 458.28 50.93 455.8 51.17 454.94 54.63 462.03 57.86 461.86 54.4 453.03 62.2 443.92 67.95 429.26 67.77 427.36 62.02 425.74 52.05 429.72 52.75 426.43 49.88 426.67 51.81 422.34 55.16 421.93 54.98 420.32 61.67 416.34 71.53 419.92 71.82 419.45 72.59 416.51 70.88 410.11 73.41 403.13 74.7 402.66 75.34 401.45 73.88 398.28 73.82 398.16 73.76 398.05 74.99 396.15 73.47 394.53 71 391.88 68.95 393.61 66.48 391.3 59.85 390.43 59.32 386.11 53.69 387.03 51.99 389.8 49.53 384.66 47.12 384.14 47.94 387.38 43.42 388.01 42.72 385.76 46.59 383.34 43.48 380.57 44.13 378.78 41.96 378.32 43.01 376.93 41.72 375.89 43.83 375.49 42.07 368.63 43.42 369.14 45.36 366.38 48.47 371.22 50.29 364.36 45.24 365.05 44.77 355.59 37.14 354.09 37.38 346.7 35.38 346.7 34.5 350.11 32.04 351.09 29.69 348.09 35.09 346.7 32.69 340.47 33.8 339.03 33.92 339.26 36.03 343.18 37.56 341.51 39.26 342.37 39.32 342.37 40.08 346.87 41.72 346.7 41.78 337.87 46.06 339.09 49 336.95 49.29 340.76 53.16 342.49 56.16 332.8 60.67 332.57 63.02 329.62 68.6 328.59 66.48 321.43 68.95 318.49 69.12 318.78 72.53 324.49 82.38 323.51 82.21 330.66 86.37 332.39 84.44 336.26 85.08 336.78 86.96 337.87 92.77 335.62 95.53 332.62 97.64 332.68 99.11 328.53 99.28 328.01 99.28 327.95 100.75 328.07 107.67 328.3 107.73 326.62 101.69 322.93 103.74 318.14 108.08 316.18 106.56 314.57 108.08 314.51 107.91 309.84 109.08 309.66 109.14 309.32 115.65 308.85 122.69 303.09 126.92 303.6 135.6 301.12 136.54 299.16 139.3 300.83 140 298.93 148.86 299.22 145.7 283.24 156.14 280.01 156.67 274.93 155.26 275.68 151.21 273.26 150.86 272.45 149.86 270.43 149.51 269.62 150.68 269.22 151.51 268.93 151.92 268.76 156.84 271.87 156.84 268.18 161.42 267.37 161.66 267.43 167.88 268.81 167.64 271.64 178.97 267.49 180.2 274.18 183.95 274.24 187.06 277.53 187.36 281.16 194.46 282.32 196.69 280.99 195.4 286.64 201.15 286.93 203.49 286.7 205.31 282.32 210.06 283.24 213.17 280.12 214.58 275.91 212.7 272.45 212.7 266.56 223.74 266.68 Z" id="Belagavi"/>
<path d="M 422.3 310.12 424.06 310.01 425.82 309.95 429.63 307.99 429.75 304.76 432.04 303.03 437.49 303.6 446.24 300.43 451.05 300.43 450.93 304.53 453.16 303.95 453.16 305.85 457.27 307.64 456.21 303.03 457.62 300.2 460.26 300.55 460.96 297.03 464.95 295.58 466.25 297.78 470.76 298.12 469.71 302.51 472.35 302.91 472.58 302.91 472.52 291.55 474.28 290.74 475.22 286.53 480.39 287.74 480.74 285.49 484.67 283.99 485.26 281.28 489.66 282.55 494.82 277.35 500.34 277.93 500.34 280.47 503.74 281.91 500.34 284.62 501.98 291.43 507.91 288.83 514.71 292.64 515.12 291.78 516.94 287.74 514.83 287.28 514.24 283.47 519.05 284.1 525.16 281.91 523.81 277.82 520.93 276.83 521.28 271.76 525.1 272.51 529.32 267.08 530.5 269.56 533.08 270.08 534.6 275.51 540.06 273.43 546.22 273.83 547.16 269.74 550.45 269.1 552.56 271.87 555.26 268.64 560.71 268.99 564.41 271.58 569.11 270.03 573.04 271.76 574.33 270.14 578.38 270.55 580.14 275.22 584.6 277.58 589.88 276.26 589 279.6 590.7 281.1 593.16 279.26 599.15 279.32 599.44 279.32 599.32 280.7 598.85 289.01 602.32 296.39 600.61 297.83 595.74 296.28 596.39 301.01 593.34 308.28 595.57 310.01 597.09 308.39 601.85 309.14 601.14 314.28 600.09 316.3 592.05 317.62 593.87 320.8 595.63 322.12 599.79 320.16 602.2 320.91 598.27 326.85 600.73 328.07 599.73 332.39 595.74 332.11 592.63 335.34 592.52 335.45 587.47 335.16 589.41 338.45 592.11 338.86 591.75 343.64 591.7 344.45 585.77 344.91 585.01 345.09 583.25 349.53 576.26 350.05 570.75 348.2 569.93 351.66 560.66 352.3 562.18 354.43 568.58 363.32 568.93 363.72 568.87 363.72 566.17 364.41 564.82 364.53 564.18 364.3 560.89 362.16 548.8 359.57 548.63 359.51 545.46 352.41 534.13 348.72 528.03 344.05 520.17 347.62 519.35 340.7 519.52 339.61 519.17 339.32 517.65 338.11 515.71 336.61 514.83 337.07 513.19 337.93 512.37 338.39 512.37 339.26 512.72 346.87 502.16 350.22 494.88 349.47 494.7 349.41 493.82 355.18 489.6 359.86 479.74 362.11 475.4 360.2 472.47 363.61 448.88 375.61 425.52 384.32 425.29 384.38 423.88 385.41 399.65 401.51 399.35 401.63 403.05 394.47 402.17 386.97 393.6 385.99 394.19 379.64 392.31 377.45 396.19 374.97 394.72 368.63 395.54 365.86 399.53 366.84 399.53 366.43 399.35 360.49 403.87 361.36 408.8 360.72 409.68 358.53 417.54 358.59 417.66 358.59 417.43 344.22 412.26 322.18 415.9 312.89 420.65 309.55 422.41 310.59 422.3 310.12 Z" id="Yadgir"/>
<path d="M 243.22 456.38 240.81 455.05 241.46 450.67 238.46 450.15 241.1 442.13 239.7 440.57 240.81 435.67 238.7 434.57 237.06 428.05 237.35 426.9 242.04 426.84 242.1 423.95 239.58 423.95 238.99 419.74 240.99 415.7 236.88 415.7 236.18 413.05 234.88 415.99 226.14 415.76 225.97 413.4 221.27 415.76 212.06 414.9 214.99 405.55 213.58 404.91 213.82 400.53 204.31 398.97 204.67 390.2 189.41 386.11 191.41 379.3 189.53 380.28 186.12 377.51 176.68 377.39 170.81 379.76 169.34 367.64 170.16 365.63 176.09 364.47 176.97 358.59 168.11 359.34 166.29 358.24 166.12 354.89 161.07 355.76 160.78 353.51 161.13 347.39 164.47 340.76 174.98 340.59 175.8 335.57 183.31 346.01 183.6 346.47 188.18 343.7 190.88 342.03 191.87 341.45 191.76 340.47 190.99 332.68 191.05 332.62 193.28 329.97 202.38 326.8 209.01 328.53 209.01 328.41 210.71 322.53 210.24 313.41 212 311.62 214.41 309.43 227.43 309.55 228.08 301.41 231.31 300.83 234.94 300.43 237.94 300.14 250.38 304.24 249.73 313.07 240.75 312.49 245.09 325.82 250.67 331.01 246.91 336.32 249.73 337.76 249.32 346.01 243.92 346.36 245.27 352.18 240.22 359.34 239.87 359.8 242.28 362.45 242.57 362.8 242.75 362.91 249.49 362.16 249.61 361.99 249.85 361.7 251.55 359.86 251.67 355.76 257.94 353.62 261.05 355.36 261.88 360.89 263.58 362.57 263.93 362.91 264.22 363.2 269.44 357.03 275.49 357.49 290.98 366.89 306.82 370.53 332.7 383.51 345.14 382.88 352.06 389.74 351.89 394.01 350.71 395.86 351.71 397.82 352.35 399.15 352.47 399.38 365.15 404.11 370.6 403.47 374.83 404.57 382.75 406.93 382.69 407.57 382.57 407.68 381.99 413.05 384.16 413.51 385.8 418.99 387.97 416.74 399.41 419.92 398.65 422.45 388.15 420.84 386.09 420.55 386.15 420.95 386.39 423.09 394.25 423.2 395.78 436.18 393.31 436.36 393.31 438.09 398.59 447.95 395.83 449.92 391.08 448.82 390.96 453.44 390.44 453.38 386.92 452.74 386.03 449.92 381.22 449.8 380.64 446.69 376 446.17 375.88 447.72 368.96 450.2 366.2 454.76 361.27 456.38 358.4 453.84 350.77 452.63 355.46 436.88 354.47 434.28 350.48 434.57 338.62 435.26 335.81 438.61 335.81 441.78 335.93 460.7 335.81 460.7 327.77 458.28 325.25 451.76 323.02 449.74 321.26 451.07 318.67 448.36 302.95 449.51 300.31 453.49 306.82 455.05 309.87 453.9 311.28 457.07 309.99 459.9 313.63 458.92 313.33 464.74 313.33 464.8 305 461.45 304.59 463.19 301.48 463.01 301.36 468.61 295.2 469.42 294.79 469.19 293.8 469.3 285.58 466.36 284.99 466.36 284.29 466.3 283.18 467.74 283 467.92 282.35 465.26 279.6 466.94 277.07 464.34 275.08 466.19 272.67 465.38 272.5 467.92 267.27 465.78 265.45 467.28 263.58 464.86 261.23 467.11 261.05 467.28 261.82 465.9 257.12 465.49 254.01 462.55 255.3 461.45 252.19 461.34 251.43 458.86 248.03 459.09 243.22 456.38 Z" id="Bagalkote"/>
<path d="M 399.35 401.63 399.65 401.51 423.88 385.41 425.29 384.38 425.52 384.32 448.88 375.61 472.47 363.61 475.4 360.2 479.74 362.11 489.6 359.86 493.82 355.18 494.7 349.41 494.88 349.47 502.16 350.22 512.72 346.87 512.37 339.26 512.37 338.39 513.19 337.93 514.83 337.07 515.71 336.61 517.65 338.11 519.17 339.32 519.52 339.61 519.35 340.7 520.17 347.62 528.03 344.05 534.13 348.72 545.46 352.41 548.63 359.51 548.8 359.57 560.89 362.16 564.18 364.3 564.82 364.53 566.17 364.41 568.87 363.72 569.93 364.07 570.51 364.01 572.45 364.88 582.19 368.05 584.95 367.88 589.64 370.41 591.23 370.93 593.34 370.47 604.55 367.93 607.71 368.8 610.47 369.49 610.53 369.55 610.59 369.55 617.75 374.57 623.26 375.38 623.21 375.49 622.21 376.93 622.15 376.99 623.44 382.7 623.79 384.2 617.69 382.7 614.46 384.49 613 388.88 610.36 386.91 607.3 387.32 604.72 390.95 605.07 395.57 609.24 395.8 606.66 396.9 604.02 407.28 604.66 415.01 608.83 417.03 606.6 417.38 605.31 420.9 607.66 422.11 605.37 429.67 608.95 434.8 608.83 448.99 593.98 445.24 585.07 446.86 561.95 442.47 544.93 445.24 544.81 445.24 544.34 445.42 531.32 451.82 530.67 452.11 530.56 452.28 526.62 458.34 522.28 465.03 522.34 465.03 522.28 465.03 517.06 470.69 507.67 478.42 503.04 489.49 498.17 492.09 492.53 499.65 488.43 502.19 488.48 513.49 484.26 516.44 475.05 513.03 473.4 509.23 462.61 507.9 460.96 504.9 461.14 502.36 463.43 502.76 462.9 498.61 459.32 500.22 459.62 496.82 446.77 494.05 446.35 489.49 434.8 489.55 430.98 486.44 427.64 488.11 419.77 483.32 418.42 474.44 413.67 472.24 420.54 463.53 414.61 459.44 416.14 455.69 406.98 453.55 406.69 450.84 403.17 453.44 404.11 457.19 402.76 460.36 400.41 458.97 401.64 453.84 396.48 453.03 396.07 454.88 391.96 455.22 391.84 455.22 391.84 455.11 390.44 453.38 390.96 453.44 391.08 448.82 395.83 449.92 398.59 447.95 393.31 438.09 393.31 436.36 395.78 436.18 394.25 423.2 386.39 423.09 386.15 420.95 386.09 420.55 388.15 420.84 398.65 422.45 399.41 419.92 387.97 416.74 385.8 418.99 384.16 413.51 381.99 413.05 382.57 407.68 382.69 407.57 382.75 406.93 383.1 406.99 390.2 409.13 393.31 403.41 399.24 401.8 399.35 401.63 Z" id="Raichur"/>
<path d="M 313.33 464.74 313.63 458.92 309.99 459.9 311.28 457.07 309.87 453.9 306.82 455.05 300.31 453.49 302.95 449.51 318.67 448.36 321.26 451.07 323.02 449.74 325.25 451.76 327.77 458.28 335.81 460.7 335.93 460.7 335.81 441.78 335.81 438.61 338.62 435.26 350.48 434.57 354.47 434.28 355.46 436.88 350.77 452.63 358.4 453.84 361.27 456.38 366.2 454.76 368.96 450.2 375.88 447.72 376 446.17 380.64 446.69 381.22 449.8 386.03 449.92 386.92 452.74 390.44 453.38 391.84 455.11 391.84 455.22 391.96 455.22 396.07 454.88 396.48 453.03 401.64 453.84 400.41 458.97 402.76 460.36 404.11 457.19 403.17 453.44 406.69 450.84 406.98 453.55 416.14 455.69 414.61 459.44 420.54 463.53 413.67 472.24 418.42 474.44 419.77 483.32 427.64 488.11 430.98 486.44 434.8 489.55 446.35 489.49 446.77 494.05 459.62 496.82 459.32 500.22 462.9 498.61 463.43 502.76 461.14 502.36 460.96 504.9 462.61 507.9 473.4 509.23 475.05 513.03 484.26 516.44 484.38 522.38 484.08 522.67 480.8 524.8 466.19 526.88 458.68 533.69 449.05 535.01 445.53 540.32 438.9 543.21 427.93 552.38 425.05 551.57 412.2 555.78 404.99 555.32 399.65 566.8 394.19 568.19 392.14 573.96 386.09 576.96 384.63 579.73 379.29 578.69 381.46 572.52 373.71 571.88 368.84 575.4 368.14 578.8 360.28 578.28 357.11 584.69 350.54 585.73 348.72 587.17 346.72 587.8 336.63 586.42 332.05 589.02 331.88 589.02 331.29 582.84 327.12 581.17 327.07 577.02 324.84 570.9 322.72 570.03 322.61 564.5 320.73 562.02 320.49 550.88 323.25 550.71 323.43 542.11 316.68 541.25 315.45 534.78 309.64 533.51 309.23 533.46 308.58 531.9 307.12 528.21 306.7 527.23 307.41 526.82 309.29 525.61 308.41 523.48 315.68 522.44 316.86 507.84 322.31 505.88 322.43 502.71 320.2 501.15 320.49 495.03 317.62 494.28 317.62 486.84 320.43 486.44 319.73 482.74 322.25 480.44 323.02 480.78 323.19 480.9 324.6 481.53 324.6 482.51 326.54 484.76 325.48 489.84 329.88 490.59 330.47 493.59 334.63 493.13 334.63 493.19 334.81 495.72 342.44 496.07 342.97 492.9 337.51 495.21 337.69 490.53 341.32 486.67 344.61 487.76 347.84 486.15 347.78 484.36 347.37 477.26 346.14 476.57 339.5 475.07 337.69 471.26 334.05 472.65 333.52 474.55 327.89 473.28 313.33 464.74 Z" id="Koppal"/>
<path d="M 214.47 491.05 212.59 491.46 211.77 486.26 211.82 482.22 215.23 482.11 216.17 484.3 216.28 484.53 218.87 484.07 219.57 481.42 219.57 477.96 217.4 477.72 216.99 469.42 220.74 469.7 223.33 466.76 223.62 470.8 227.78 470.8 229.6 463.65 238.41 464.22 236.59 474.38 240.63 475.47 244.33 468.38 243.63 457.3 243.28 457.01 243.22 456.38 248.03 459.09 251.43 458.86 252.19 461.34 255.3 461.45 254.01 462.55 257.12 465.49 261.82 465.9 261.05 467.28 261.23 467.11 263.58 464.86 265.45 467.28 267.27 465.78 272.5 467.92 272.67 465.38 275.08 466.19 277.07 464.34 279.6 466.94 282.35 465.26 283 467.92 283.18 467.74 284.29 466.3 284.99 466.36 285.58 466.36 293.8 469.3 294.79 469.19 295.2 469.42 301.36 468.61 301.48 463.01 304.59 463.19 305 461.45 313.33 464.8 313.33 464.74 327.89 473.28 333.52 474.55 334.05 472.65 337.69 471.26 339.5 475.07 346.14 476.57 347.37 477.26 347.78 484.36 347.84 486.15 344.61 487.76 341.32 486.67 337.69 490.53 337.51 495.21 342.97 492.9 342.44 496.07 334.81 495.72 334.63 493.19 334.63 493.13 330.47 493.59 329.88 490.59 325.48 489.84 326.54 484.76 324.6 482.51 324.6 481.53 323.19 480.9 323.02 480.78 322.25 480.44 319.73 482.74 320.43 486.44 317.62 486.84 317.62 494.28 320.49 495.03 320.2 501.15 322.43 502.71 322.31 505.88 316.86 507.84 315.68 522.44 308.41 523.48 309.29 525.61 307.41 526.82 306.7 527.23 307.12 528.21 308.58 531.9 309.23 533.46 309.64 533.51 315.45 534.78 316.68 541.25 323.43 542.11 323.25 550.71 320.49 550.88 320.73 562.02 322.61 564.5 322.72 570.03 324.84 570.9 327.07 577.02 327.12 581.17 331.29 582.84 331.88 589.02 327.71 588.38 323.13 590.17 320.02 594.44 320.2 594.61 324.31 599.92 323.49 603.09 319.85 604.25 318.09 607.25 313.16 605.57 310.87 608.46 306.35 609.21 302.3 613.13 301.31 617.57 294.5 623.23 290.86 622.19 288.75 622.82 287.46 622.65 285.76 618.32 285.46 618.15 284.82 617.75 281.71 615.9 279.89 615.67 275.2 615.04 271.15 618.32 271.44 620.92 269.15 621.56 263.4 617.23 259.12 617.29 259.41 611.11 257.65 607.42 250.96 605.17 244.92 605.75 242.69 602.75 237.11 602.63 237 598.48 239.99 594.15 234.65 583.13 233.3 584.17 233.89 577.82 239.93 578.28 239.93 576.32 242.81 576.61 241.22 573.27 236.88 571.94 237 566.98 234.59 567.38 234.42 565.07 237.06 564.78 235.18 564.32 236.29 560.4 242.86 560 244.27 552.9 241.98 545.05 246.27 545.11 247.44 543.38 250.43 548.17 250.96 530.23 249.49 526.76 246.8 526.19 247.38 521.92 248.56 519.26 257.01 518.17 257.89 508.65 261.46 498.78 252.25 498.72 249.61 488.97 246.21 489.26 246.5 492.21 242.51 492.55 236.41 497.34 227.43 494.97 226.9 499.07 222.68 498.49 222.91 494.05 215.23 490.88 214.47 491.05 Z" id="Gadag"/>
<path d="M 484.26 516.44 488.48 513.49 488.43 502.19 492.53 499.65 498.17 492.09 503.04 489.49 507.67 478.42 517.06 470.69 522.28 465.03 522.34 465.03 529.38 466.82 529.73 473.86 526.39 481.24 525.92 482.22 526.51 484.01 531.9 484.53 531.79 486.55 533.31 486.67 531.73 490.24 540.65 495.44 539.36 501.61 532.55 496.65 523.22 501.03 523.1 524.4 513.3 523.01 513.48 525.84 513.48 526.24 523.46 536.28 522.99 541.82 526.15 544.36 525.22 549.38 529.32 552.61 529.09 555.38 537.83 554.34 538.77 561.27 544.7 561.67 543.87 565.13 547.45 566.8 547.45 566.86 543.29 567.9 540.18 570.96 540 573.27 544.7 575.23 545.99 577.59 547.1 581 546.69 585.61 542.76 585.44 542.35 587.46 542.23 588.09 544.4 588.21 545.64 588.61 544.75 592.42 540.88 595.65 537.83 607.48 532.84 608.11 532.43 612.44 525.63 611.8 526.57 607.65 518.53 607.54 515.3 608.86 515.18 610.82 503.33 607.25 495.99 608.17 494 602.98 488.72 599.46 482.38 596.52 478.22 599.63 477.63 603.04 480.56 609.84 477.63 614.8 475.34 615.32 475.4 615.44 470.65 616.13 470.24 611.17 470 608.75 468.48 607.71 465.25 607.59 464.9 610.65 464.9 610.71 462.49 609.09 459.85 610.13 462.61 617.34 467.3 618.32 467.3 618.38 467.3 618.56 467.54 622.77 466.95 623.4 464.07 626.4 457.5 623.86 458.03 626.63 458.44 628.42 460.55 629.29 460.67 633.56 464.13 633.38 466.95 637.42 466.66 642.38 472 645.73 465.42 645.84 458.85 650.11 458.74 653.4 455.51 656.75 454.8 664.42 448.35 668.92 448.76 672.27 446.53 672.15 446.41 674.98 448.99 675.9 446.18 679.02 447 680.75 444.24 681.38 441.07 686.69 435.26 691.36 435.21 691.42 435.03 691.36 431.04 691.48 430.04 690.61 415.61 687.73 417.07 681.21 410.27 679.71 409.62 675.85 406.87 676.19 407.75 673.48 401.29 672.79 400 669.09 399.59 668.92 390.02 669.44 387.09 667.36 385.68 667.25 381.34 675.73 373.07 666.67 376.12 659.81 374.59 654.61 372.54 655.36 370.43 651.61 366.97 651.84 365.79 650.23 366.44 644.86 368.96 643.71 374.95 645.33 374.3 640.77 368.73 640.65 367.9 638.17 363.62 638.23 363.33 636.73 353.35 636.79 352.24 634.13 355.46 628.88 349.54 628.42 348.48 625.82 342.73 631.94 342.32 630.32 339.97 631.59 337.74 629.81 336.39 631.54 334.4 629.75 317.97 636.96 317.27 639.38 314.51 637.71 314.57 634.19 310.69 634.19 307.82 631.31 305.3 636.79 306.65 642.38 307.58 643.36 308.17 642.9 310.28 646.08 310.87 647 311.05 647.23 310.87 647.69 309.64 652.25 309.46 652.71 309.29 652.77 304.77 654.5 300.19 650.46 297.84 653.4 297.26 659.69 297.73 660.67 294.15 661.42 290.45 663.27 288.69 662.52 288.46 662.46 288.05 662.29 291.21 653.98 285.82 652.13 282.71 649.42 281.06 647.92 280.89 647.75 285.52 638.92 289.51 639.67 293.09 637.71 294.21 633.5 292.27 631.71 286.58 632.69 284.35 624.56 284.23 624.15 285.76 623.69 287.46 622.65 288.75 622.82 290.86 622.19 294.5 623.23 301.31 617.57 302.3 613.13 306.35 609.21 310.87 608.46 313.16 605.57 318.09 607.25 319.85 604.25 323.49 603.09 324.31 599.92 320.2 594.61 320.02 594.44 323.13 590.17 327.71 588.38 331.88 589.02 332.05 589.02 336.63 586.42 346.72 587.8 348.72 587.17 350.54 585.73 357.11 584.69 360.28 578.28 368.14 578.8 368.84 575.4 373.71 571.88 381.46 572.52 379.29 578.69 384.63 579.73 386.09 576.96 392.14 573.96 394.19 568.19 399.65 566.8 404.99 555.32 412.2 555.78 425.05 551.57 427.93 552.38 438.9 543.21 445.53 540.32 449.05 535.01 458.68 533.69 466.19 526.88 480.8 524.8 484.08 522.67 484.38 522.38 484.26 516.44 Z" id="Ballari"/>
<path d="M 116.89 540.09 115.18 537.03 117.82 531.32 114.77 526.82 118.59 525.55 123.81 532.07 125.34 527.34 130.15 523.99 127.33 516.26 134.96 511.59 133.08 505.3 141.65 503.98 145.81 501.49 156.96 502.3 157.2 497.51 166.59 499.36 168.17 494.74 171.46 494.63 171.75 493.36 173.74 492.61 173.16 501.38 179.44 505.76 182.31 494.4 199.09 498.44 199.09 492.67 205.02 493.13 207.31 498.78 211.71 498.49 212.41 491.69 214.47 491.05 215.23 490.88 222.91 494.05 222.68 498.49 226.9 499.07 227.43 494.97 236.41 497.34 242.51 492.55 246.5 492.21 246.21 489.26 249.61 488.97 252.25 498.72 261.46 498.78 257.89 508.65 257.01 518.17 248.56 519.26 247.38 521.92 246.8 526.19 249.49 526.76 250.96 530.23 250.43 548.17 247.44 543.38 246.27 545.11 241.98 545.05 244.27 552.9 242.86 560 236.29 560.4 235.18 564.32 237.06 564.78 234.42 565.07 234.59 567.38 237 566.98 236.88 571.94 241.22 573.27 242.81 576.61 239.93 576.32 239.93 578.28 233.89 577.82 233.3 584.17 234.65 583.13 239.99 594.15 237 598.48 237 602.98 228.61 604.65 224.15 601.65 222.21 598.19 225.32 595.77 225.2 595.71 224.26 594.79 222.91 593.46 222.8 584.86 217.57 586.02 218.04 589.02 214.05 589.25 209.36 592.54 208.07 596.17 205.49 594.21 196.51 596.17 191.17 595.54 191.29 594.09 187.83 595.02 186.71 592.42 190.23 587.69 188.12 585.09 187.88 585.5 186.54 587.86 181.61 588.5 181.66 588.61 183.25 592.77 176.85 593.98 177.67 600.32 173.45 600.73 172.75 598.82 165.41 601.42 152.62 601.77 152.56 604.36 150.74 605.34 148.4 606.67 146.87 604.54 143.41 604.59 141.59 600.44 143.99 596.34 143.64 596.29 138.19 595.3 134.55 590.8 133.49 589.54 135.08 586.3 141.41 579.27 140.65 575.17 147.22 569 146.34 564.15 146.17 563.52 143.41 559.07 140.77 560.63 141.18 557.4 137.19 553.01 132.73 553.13 131.09 547.88 133.14 547.42 131.38 545.23 126.8 546.38 121.52 542.69 121.76 539.8 121.76 539.57 117.06 540.03 116.89 540.09 Z" id="Dharwad"/>
<path d="M 35.15 520.82 46.53 521.69 52.28 528.26 59.09 529.48 60.62 531.32 61.44 542.86 66.78 542.05 68.18 539.92 71.41 543.32 82.38 539.63 94.71 549.96 100.98 544.36 108.08 542.98 109.84 540.84 117.18 540.67 116.89 540.09 117.06 540.03 121.76 539.57 121.76 539.8 121.52 542.69 126.8 546.38 131.38 545.23 133.14 547.42 131.09 547.88 132.73 553.13 137.19 553.01 141.18 557.4 140.77 560.63 143.41 559.07 146.17 563.52 146.34 564.15 147.22 569 140.65 575.17 141.41 579.27 135.08 586.3 133.49 589.54 134.55 590.8 138.19 595.3 143.64 596.29 143.99 596.34 141.59 600.44 143.41 604.59 146.87 604.54 148.4 606.67 150.74 605.34 152.56 604.36 152.62 601.77 165.41 601.42 172.75 598.82 173.45 600.73 177.67 600.32 175.45 610.82 176.68 618.15 178.03 621.27 180.67 621.27 181.37 625.19 175.09 627.96 176.33 636.79 175.27 642.04 179.38 647 172.98 646.42 175.56 652.02 170.46 653.63 171.51 658.83 169.93 661.77 165.82 663.09 166.17 665 168.81 665.34 168.64 672.96 172.16 675.67 167.76 682.54 167.29 686.63 167.23 690.27 168.87 691.94 174.04 694.48 169.69 696.96 170.34 702.15 166.41 702.79 161.3 707.06 161.48 701.98 158.14 698.52 159.54 697.88 159.02 693.56 155.03 693.1 151.74 698.86 150.16 697.08 145.58 697.02 143.53 705.85 149.1 709.42 143.7 708.96 140.88 711.5 141.65 713.63 148.45 714.33 151.39 719.23 153.79 720.04 154.03 720.1 153.85 720.85 152.39 727.31 158.6 731 158.72 731.87 158.78 732.5 159.02 734.17 158.25 734.23 157.08 734.29 149.39 734.87 148.51 736.02 146.87 739.94 146.99 740.64 147.69 741.56 150.1 741.67 150.16 741.85 150.21 741.79 150.27 742.08 151.51 746.98 151.68 747.73 150.98 748.14 146.93 750.5 143.64 752.4 141.47 752.58 140.65 748.08 137.13 753.39 133.37 750.1 126.22 750.56 121.23 748.65 115.24 744.1 112.78 749.52 113.25 752.92 118.41 765.56 103.8 758.17 96.7 762.04 97.35 765.27 100.16 765.67 100.4 770.58 102.1 770.75 98.81 774.1 102.98 780.5 101.98 783.91 105.97 784.71 103.98 793.19 103.74 794 100.05 798.39 100.63 801.44 100.57 801.44 97.58 800.52 91.71 803 91.42 801.27 89.13 804.04 86.67 799.71 83.21 800.06 77.16 793.19 69.06 757.48 64.08 751.08 55.75 716.63 53.63 716.17 53.87 712.94 48.82 700.6 40.78 698.4 41.6 694.08 33.68 679.65 35.8 679.65 36.44 676.36 34.09 666.73 31.34 665.34 32.45 663.33 27.35 658.19 26.17 660.09 22.12 660.21 22.77 663.56 21.6 663.21 17.31 657.79 12.79 658.36 13.73 656.11 10.92 652.65 6.93 653.52 6.75 651.5 2.29 648.27 5.87 648.09 5.87 649.54 7.92 648.04 7.98 641.81 5.64 640.19 2.82 631.59 1 631.13 7.81 626.86 14.5 629.17 13.15 623.57 14.79 620.98 15.02 620.98 17.61 621.21 21.54 626.75 27.76 619.48 30.57 620.86 32.69 617.34 30.75 613.94 33.33 613.25 38.38 606.21 34.15 596.23 36.32 593.34 36.38 587.17 42.01 580.48 39.32 573.73 31.86 570.78 30.4 567.67 34.8 563.34 43.66 563.28 45.42 561.27 42.01 555.15 43.13 548.34 34.74 544.07 33.51 539.23 34.68 533.86 30.34 526.42 30.34 526.36 35.15 520.82 Z" id="Uttara Kannada"/>
<path d="M 237 598.48 237.11 602.63 242.69 602.75 244.92 605.75 250.96 605.17 257.65 607.42 259.41 611.11 259.12 617.29 263.4 617.23 269.15 621.56 271.44 620.92 271.15 618.32 275.2 615.04 279.89 615.67 281.71 615.9 284.82 617.75 285.46 618.15 285.76 618.32 287.46 622.65 285.76 623.69 284.23 624.15 284.35 624.56 286.58 632.69 292.27 631.71 294.21 633.5 293.09 637.71 289.51 639.67 285.52 638.92 280.89 647.75 281.06 647.92 282.71 649.42 285.82 652.13 291.21 653.98 288.05 662.29 288.46 662.46 288.69 662.52 290.45 663.27 294.15 661.42 297.73 660.67 298.55 662.29 298.61 662.69 298.31 663.04 294.38 667.77 293.97 668.29 294.32 668.52 298.55 671.11 304.59 670.08 305.59 672.09 306.82 675.27 305.82 684.73 308.29 690.67 304.94 694.88 304.53 700.25 297.49 699.61 290.04 707.12 285.46 703.65 280.48 710.75 279.24 708.62 276.08 708.33 274.9 712.02 277.13 714.38 273.61 729.85 275.43 734.64 271.44 734.87 270.15 738.9 266.39 741.5 258.12 741.67 257.65 741.67 257.83 739.54 252.25 736.25 251.96 729.79 247.62 729.9 247.79 734.58 224.97 722.06 226.85 718.31 230.13 718.54 230.89 713.98 227.78 712.54 226.26 714.9 223.44 713.58 224.5 704.81 219.8 699.79 210.59 699.56 210.65 697.25 215.81 695 210.18 688.08 206.31 688.36 205.78 692.46 203.08 690.21 203.43 687.33 199.91 689.4 195.81 686.98 195.34 684.85 199.5 684.9 199.56 677.81 196.45 680.46 192.46 678.56 191.52 681.38 180.78 675.1 176.03 674.69 172.16 675.67 168.64 672.96 168.81 665.34 166.17 665 165.82 663.09 169.93 661.77 171.51 658.83 170.46 653.63 175.56 652.02 172.98 646.42 179.38 647 175.27 642.04 176.33 636.79 175.09 627.96 181.37 625.19 180.67 621.27 178.03 621.27 176.68 618.15 175.45 610.82 177.67 600.32 176.85 593.98 183.25 592.77 181.66 588.61 181.61 588.5 186.54 587.86 187.88 585.5 188.12 585.09 190.23 587.69 186.71 592.42 187.83 595.02 191.29 594.09 191.17 595.54 196.51 596.17 205.49 594.21 208.07 596.17 209.36 592.54 214.05 589.25 218.04 589.02 217.57 586.02 222.8 584.86 222.91 593.46 224.26 594.79 225.2 595.71 225.32 595.77 222.21 598.19 224.15 601.65 228.61 604.65 237 602.98 237 598.48 Z" id="Haveri"/>
<path d="M 431.04 691.48 435.03 691.36 435.21 691.42 435.26 691.36 441.07 686.69 444.24 681.38 447 680.75 446.18 679.02 448.99 675.9 446.41 674.98 446.53 672.15 448.76 672.27 448.35 668.92 454.8 664.42 455.51 656.75 458.74 653.4 458.85 650.11 465.42 645.84 472 645.73 466.66 642.38 466.95 637.42 464.13 633.38 460.67 633.56 460.55 629.29 458.44 628.42 458.03 626.63 457.5 623.86 464.07 626.4 466.95 623.4 467.54 622.77 467.3 618.56 467.3 618.38 467.3 618.32 462.61 617.34 459.85 610.13 462.49 609.09 464.9 610.71 464.9 610.65 465.25 607.59 468.48 607.71 470 608.75 470.24 611.17 470.65 616.13 475.4 615.44 476.4 617.86 476.46 617.86 485.55 618.96 487.37 621.27 494.29 618.9 493.65 632.06 490.42 633.15 492.47 636.73 491.89 641.34 489.72 642.5 491.89 647.34 488.95 647.11 488.84 650.63 479.27 651.5 482.85 659.29 477.92 670.13 476.1 684.1 479.1 685.08 483.44 696.67 487.84 696.79 492.18 700.48 494.35 706.83 500.16 704.12 513.3 704.81 510.66 710.98 508.02 710.92 507.67 719.98 502.86 716.29 499.81 720.27 497.34 720.67 497.34 729.21 500.69 733.65 508.14 735.33 510.14 738.67 504.5 742.31 507.08 747.44 515.24 746.98 518.82 749.06 518.76 749.69 517.65 750.21 518.29 755.75 521.81 759.1 510.78 758.64 508.49 755.69 507.55 760.14 499.1 761.12 497.58 766.37 502.33 768.04 504.5 766.54 508.38 771.67 508.61 774.1 505.09 777.04 504.15 780.73 501.86 779.46 498.05 782.35 495.23 789.21 488.95 787.66 486.49 791.87 490.95 794.35 491.18 797.35 484.32 802.14 485.08 805.77 476.04 804.27 473.35 805.71 473.87 807.44 468.65 808.89 476.4 819.96 476.81 827.18 476.04 829.54 473.29 829.77 470.12 829.08 468.83 826.37 464.25 831.39 461.84 838.77 461.96 845.75 459.79 840.73 452.16 841.66 450.58 838.02 441.43 841.48 442.72 845.81 436.2 850.6 434.38 850.08 435.15 852.79 429.16 857.93 422.18 858.45 421.18 863.41 416.78 863 413.73 865.66 411.32 862.72 408.33 865.89 406.69 863 403.05 865.43 401 866 399.53 862.43 393.72 863.75 388.91 860.93 391.26 853.54 387.15 853.14 379.76 847.25 379.4 841.71 371.25 841.08 370.6 839.29 366.85 838.31 363.44 823.77 360.92 824.18 357.93 815 354.17 812.12 350.3 812 348.13 808.77 347.66 808.77 345.72 808.83 345.49 808.83 345.72 808.25 348.36 801.1 352.12 801.21 353.29 794 349.48 794.64 349.42 794.58 348.13 793.14 348.19 792.73 350.13 775.08 348.78 773.58 346.37 774.91 344.9 770.81 348.66 763.37 351.71 762.56 351.3 751.42 354.47 747.39 364.38 745.48 363.5 741.21 361.21 741.67 361.74 738.56 359.34 735.85 361.04 733.54 368.26 734.12 368.02 722.29 364.62 715.13 370.96 711.44 371.19 709.19 377.29 709.77 379.23 712.48 382.69 710.98 386.8 712.08 390.32 719.17 408.45 716.35 410.8 713.81 415.67 713.12 415.55 711.1 422 710.75 422.3 701.11 426.46 701.4 434.5 695.4 434.91 694.77 432.27 692.52 430.92 691.48 431.04 691.48 Z" id="Chitradurga"/>
<path d="M 297.73 660.67 297.26 659.69 297.84 653.4 300.19 650.46 304.77 654.5 309.29 652.77 309.46 652.71 309.64 652.25 310.87 647.69 311.05 647.23 310.87 647 310.28 646.08 308.17 642.9 307.58 643.36 306.65 642.38 305.3 636.79 307.82 631.31 310.69 634.19 314.57 634.19 314.51 637.71 317.27 639.38 317.97 636.96 334.4 629.75 336.39 631.54 337.74 629.81 339.97 631.59 342.32 630.32 342.73 631.94 348.48 625.82 349.54 628.42 355.46 628.88 352.24 634.13 353.35 636.79 363.33 636.73 363.62 638.23 367.9 638.17 368.73 640.65 374.3 640.77 374.95 645.33 368.96 643.71 366.44 644.86 365.79 650.23 366.97 651.84 370.43 651.61 372.54 655.36 374.59 654.61 376.12 659.81 373.07 666.67 381.34 675.73 385.68 667.25 387.09 667.36 390.02 669.44 399.59 668.92 400 669.09 401.29 672.79 407.75 673.48 406.87 676.19 409.62 675.85 410.27 679.71 417.07 681.21 415.61 687.73 430.04 690.61 431.04 691.48 430.92 691.48 432.27 692.52 434.91 694.77 434.5 695.4 426.46 701.4 422.3 701.11 422 710.75 415.55 711.1 415.67 713.12 410.8 713.81 408.45 716.35 390.32 719.17 386.8 712.08 382.69 710.98 379.23 712.48 377.29 709.77 371.19 709.19 370.96 711.44 364.62 715.13 368.02 722.29 368.26 734.12 361.04 733.54 359.34 735.85 361.74 738.56 361.21 741.67 363.5 741.21 364.38 745.48 354.47 747.39 351.3 751.42 351.71 762.56 348.66 763.37 344.9 770.81 346.37 774.91 348.78 773.58 350.13 775.08 348.19 792.73 348.13 793.14 349.42 794.58 349.48 794.64 353.29 794 352.12 801.21 348.36 801.1 345.72 808.25 345.49 808.83 345.72 808.83 345.78 811.14 344.84 814.19 343.79 814.19 343.26 813.56 342.56 814.19 338.51 817.71 335.16 816.33 331.52 820.31 331.99 823.48 321.96 825.21 318.97 824.52 317.68 817.25 314.8 813.44 315.56 806.75 310.17 795.91 309.23 787.48 304.77 784.94 308.7 779.35 307.53 772.14 306.06 773.46 297.2 771.33 294.15 772.94 294.03 775.37 291.04 776.06 291.8 777.44 282.47 779.35 275.61 776.69 272.67 777.27 270.15 780.85 259.47 777.04 257.36 773.58 250.14 772.31 242.69 773.92 234 770 241.81 761.87 249.03 759.62 244.16 754.37 252.25 752.23 253.02 752 256.54 754.89 257.65 741.67 258.12 741.67 266.39 741.5 270.15 738.9 271.44 734.87 275.43 734.64 273.61 729.85 277.13 714.38 274.9 712.02 276.08 708.33 279.24 708.62 280.48 710.75 285.46 703.65 290.04 707.12 297.49 699.61 304.53 700.25 304.94 694.88 308.29 690.67 305.82 684.73 306.82 675.27 305.59 672.09 304.59 670.08 298.55 671.11 294.32 668.52 293.97 668.29 294.38 667.77 298.31 663.04 298.61 662.69 298.55 662.29 297.73 660.67 Z" id="Davanagere"/>
<path d="M 103.98 793.19 105.97 784.71 101.98 783.91 102.98 780.5 98.81 774.1 102.1 770.75 100.4 770.58 100.16 765.67 97.35 765.27 96.7 762.04 103.8 758.17 118.41 765.56 113.25 752.92 112.78 749.52 115.24 744.1 121.23 748.65 126.22 750.56 133.37 750.1 137.13 753.39 140.65 748.08 141.47 752.58 143.64 752.4 146.93 750.5 150.98 748.14 151.68 747.73 151.51 746.98 150.27 742.08 150.21 741.79 150.16 741.85 150.1 741.67 147.69 741.56 146.99 740.64 146.87 739.94 148.51 736.02 149.39 734.87 157.08 734.29 158.25 734.23 159.02 734.17 158.78 732.5 158.72 731.87 158.6 731 152.39 727.31 153.85 720.85 154.03 720.1 153.79 720.04 151.39 719.23 148.45 714.33 141.65 713.63 140.88 711.5 143.7 708.96 149.1 709.42 143.53 705.85 145.58 697.02 150.16 697.08 151.74 698.86 155.03 693.1 159.02 693.56 159.54 697.88 158.14 698.52 161.48 701.98 161.3 707.06 166.41 702.79 170.34 702.15 169.69 696.96 174.04 694.48 168.87 691.94 167.23 690.27 167.29 686.63 167.76 682.54 172.16 675.67 176.03 674.69 180.78 675.1 191.52 681.38 192.46 678.56 196.45 680.46 199.56 677.81 199.5 684.9 195.34 684.85 195.81 686.98 199.91 689.4 203.43 687.33 203.08 690.21 205.78 692.46 206.31 688.36 210.18 688.08 215.81 695 210.65 697.25 210.59 699.56 219.8 699.79 224.5 704.81 223.44 713.58 226.26 714.9 227.78 712.54 230.89 713.98 230.13 718.54 226.85 718.31 224.97 722.06 247.79 734.58 247.62 729.9 251.96 729.79 252.25 736.25 257.83 739.54 257.65 741.67 256.54 754.89 253.02 752 252.25 752.23 244.16 754.37 249.03 759.62 241.81 761.87 234 770 242.69 773.92 250.14 772.31 257.36 773.58 259.47 777.04 270.15 780.85 272.67 777.27 275.61 776.69 282.47 779.35 291.8 777.44 291.04 776.06 294.03 775.37 294.15 772.94 297.2 771.33 306.06 773.46 307.53 772.14 308.7 779.35 304.77 784.94 309.23 787.48 310.17 795.91 315.56 806.75 314.8 813.44 317.68 817.25 318.97 824.52 309.52 823.02 306.35 827.29 301.01 828.39 299.14 826.83 298.72 829.6 284.99 832.25 284.88 835.2 281.83 832.71 279.42 835.89 282.76 839.93 278.6 840.73 275.78 843.79 275.72 843.85 273.55 843.04 272.61 839.98 274.49 838.2 271.15 835.89 271.44 833.23 264.46 834.21 263.46 836.81 259.06 839.12 253.02 832.43 251.49 833.75 249.49 831.96 249.49 832.02 249.79 833.46 247.09 835.2 243.69 839.87 237.47 842.98 231.07 842.12 235.35 850.02 236.64 852.45 236.12 854.41 235.35 857.23 232.48 857.52 231.95 858.73 231.77 859.14 231.6 859.43 229.37 857.18 229.19 857.23 228.72 862.31 224.21 865.25 220.98 863.12 215.46 864.5 212.59 868.08 206.54 860.87 204.9 862.08 203.79 861.22 202.73 861.33 200.5 864.39 203.32 867.39 201.44 869.29 203.2 874.54 194.4 879.68 193.22 878.12 187.3 884.41 188.12 886.37 183.66 887.18 181.25 881.47 177.32 880.89 176.74 876.97 173.86 876.1 173.8 876.1 173.68 876.1 174.27 874.43 171.87 871.14 169.34 867.62 169.69 867.16 170.99 865.37 173.98 861.39 173.98 861.33 167.29 856.66 165.88 855.62 165.41 851.52 168.17 849.85 165.29 848.18 165.06 845.64 166.94 844.37 161.54 842.29 162.89 837.27 150.39 831.85 151.33 828.45 151.15 828.04 146.81 816.1 141.65 814.37 139.24 816.16 134.72 809.06 131.14 807.21 121.05 805.77 112.02 807.68 111.31 803.81 108.26 802.66 109.73 799.6 105.44 796.37 104.92 795.27 103.98 793.19 Z" id="Shivamogga"/>
<path d="M 89.13 804.04 91.42 801.27 91.71 803 97.58 800.52 100.57 801.44 100.63 801.44 100.05 798.39 103.74 794 103.98 793.19 104.92 795.27 105.44 796.37 109.73 799.6 108.26 802.66 111.31 803.81 112.02 807.68 121.05 805.77 131.14 807.21 134.72 809.06 139.24 816.16 141.65 814.37 146.81 816.1 151.15 828.04 151.33 828.45 150.39 831.85 162.89 837.27 161.54 842.29 166.94 844.37 165.06 845.64 165.29 848.18 168.17 849.85 165.41 851.52 165.88 855.62 167.29 856.66 173.98 861.33 173.98 861.39 170.99 865.37 169.69 867.16 169.34 867.62 171.87 871.14 174.27 874.43 173.68 876.1 173.8 876.1 173.86 876.1 176.74 876.97 177.32 880.89 181.25 881.47 183.66 887.18 188.12 886.37 190.53 887.81 190.64 891.91 187.94 896.06 189.12 898.54 185.65 899.87 185.77 903.27 183.01 905.01 179.02 904.14 177.09 907.37 183.07 918.1 187.94 917.12 192.7 932.24 199.62 936.79 189.76 946.03 183.54 944.93 184.54 944.01 180.43 938.93 177.5 939.51 177.97 942.33 173.51 944.87 169.64 943.08 165.82 944.99 162.13 940.31 158.66 945.22 155.03 946.66 154.56 946.26 152.74 943.72 152.97 942.79 151.86 942.45 150.68 942.1 150.39 941.99 147.28 944.64 147.52 949.03 141.53 951.28 138.3 945.51 132.32 945.22 129.38 948.1 126.27 947.47 127.39 949.72 126.22 951.04 123.69 949.95 123.46 955.49 112.9 912.51 109.55 906.56 109.2 902.35 110.55 901.6 109.2 902 109.08 887.35 104.56 855.62 100.28 847.08 94 814.48 89.13 804.04 Z" id="Udupi"/>
<path d="M 345.72 808.83 347.66 808.77 348.13 808.77 350.3 812 354.17 812.12 357.93 815 360.92 824.18 363.44 823.77 366.85 838.31 370.6 839.29 371.25 841.08 379.4 841.71 379.76 847.25 387.15 853.14 391.26 853.54 388.91 860.93 393.72 863.75 399.53 862.43 401 866 403.05 865.43 404.99 871.14 404.75 874.14 401.76 877.08 396.48 872.47 395.78 875 392.43 874.72 391.84 878.64 381.93 878.18 381.46 885.22 375.59 885.04 375.3 888.33 373.65 887.93 374.77 885.04 369.25 884.87 364.79 889.77 365.2 896.06 356.4 898.37 356.23 902.29 350.36 900.68 347.84 901.83 345.25 910.2 348.07 910.77 346.9 924.1 343.38 923.7 343.08 921.85 329.12 922.77 323.31 922.43 322.61 920.99 318.62 922.02 315.92 925.6 315.15 922.37 311.93 923.52 307.82 922.26 306 929.87 301.25 930.97 297.61 929.64 294.91 931.37 292.39 935.7 292.62 939.04 296.79 944.06 293.5 946.31 294.09 948.68 292.09 950.58 294.79 955.89 294.38 962.87 292.21 964.03 289.1 961.43 286.64 961.66 286.34 960.04 285.58 962.24 279.42 964.2 277.07 962.64 268.74 978.16 264.63 979.78 262.23 983.12 261.88 983.64 261.76 978.33 254.31 971.93 257.59 967.37 254.48 956.47 249.32 951.79 248.2 954.51 246.56 954.45 246.62 950.99 243.86 948.68 242.04 949.6 240.05 946.6 238.46 949.31 235.35 948.39 234.83 940.66 232.13 937.78 230.54 936.45 224.62 936.04 221.33 937.89 219.28 944.01 215.35 946.14 213.64 944.24 212.35 945.68 207.89 945.33 201.67 940.43 199.91 941.01 199.62 936.79 192.7 932.24 187.94 917.12 183.07 918.1 177.09 907.37 179.02 904.14 183.01 905.01 185.77 903.27 185.65 899.87 189.12 898.54 187.94 896.06 190.64 891.91 190.53 887.81 188.12 886.37 187.3 884.41 193.22 878.12 194.4 879.68 203.2 874.54 201.44 869.29 203.32 867.39 200.5 864.39 202.73 861.33 203.79 861.22 204.9 862.08 206.54 860.87 212.59 868.08 215.46 864.5 220.98 863.12 224.21 865.25 228.72 862.31 229.19 857.23 229.37 857.18 231.6 859.43 231.77 859.14 231.95 858.73 232.48 857.52 235.35 857.23 236.12 854.41 236.64 852.45 235.35 850.02 231.07 842.12 237.47 842.98 243.69 839.87 247.09 835.2 249.79 833.46 249.49 832.02 249.49 831.96 251.49 833.75 253.02 832.43 259.06 839.12 263.46 836.81 264.46 834.21 271.44 833.23 271.15 835.89 274.49 838.2 272.61 839.98 273.55 843.04 275.72 843.85 275.78 843.79 278.6 840.73 282.76 839.93 279.42 835.89 281.83 832.71 284.88 835.2 284.99 832.25 298.72 829.6 299.14 826.83 301.01 828.39 306.35 827.29 309.52 823.02 318.97 824.52 321.96 825.21 331.99 823.48 331.52 820.31 335.16 816.33 338.51 817.71 342.56 814.19 343.26 813.56 343.79 814.19 344.84 814.19 345.78 811.14 345.72 808.83 Z" id="Chikkamagaluru"/>
<path d="M 598.56 847.2 605.07 845.87 603.78 841.43 608.95 841.71 608.65 844.54 610.94 845.64 611.06 845.18 612.94 838.66 610.36 836.18 611.24 834.62 614.87 834.68 617.22 840.1 617.22 840.04 624.2 835.08 626.61 834.85 629.13 837.91 631.65 835.77 627.55 834.33 627.9 831.91 638.4 828.68 636.88 833.35 642.51 831.68 643.45 836.81 644.97 836.75 645.33 826.25 656.36 823.08 657.71 820.95 656.53 818.52 661.81 817.66 666.22 813.96 664.51 813.1 665.98 811.94 665.34 809.35 662.05 806 664.4 800.64 666.57 802.25 676.6 801.33 676.66 804.96 682.12 807.68 689.8 797.98 692.91 798.73 691.62 803.64 692.74 808.08 686.11 811.02 686.75 821.46 690.86 821.12 695.2 813.39 703.3 815.29 703.89 809.35 709.11 811.94 709.64 815.46 715.44 815.18 716.85 819.1 715.27 824.98 717.44 828.62 711.34 836.58 716.56 841.31 715.21 845.35 707.7 844.31 706.76 848.29 711.04 851.29 710.57 854.18 715.39 851.64 722.78 851.41 725.13 852.22 724.95 855.97 731.35 856.77 729.76 862.37 728.88 863.52 729 865.14 729.17 866.64 729.35 868.02 729.94 867.39 730.11 867.5 730.82 868.2 730.23 869.41 731.23 874.6 728.41 877.14 730.23 877.31 732.4 884.64 730.11 888.85 727.47 893.58 719.2 896.35 717.21 899.75 716.79 901.66 720.43 901.54 721.72 904.72 721.78 905.99 718.5 905.7 718.32 909.97 714.45 910.89 719.32 914.24 718.85 917.18 711.4 913.2 704.35 916.14 703.42 918.85 697.84 918.04 697.14 914.76 693.97 914.29 692.38 917.47 688.22 917.81 687.34 920.35 684.17 920.7 683.58 924.56 683.64 924.56 682.88 924.79 682.53 925.95 679.89 926.18 675.78 926.58 678.36 923.76 675.78 922.54 672.79 924.91 673.26 926.64 670.91 925.43 669.97 929.12 668.5 929.24 668.68 925.43 663.46 923.41 662.23 925.72 660.99 925.08 663.4 922.43 661.23 921.79 662.46 915.45 664.87 916.66 664.57 914.01 661.46 913.2 664.45 910.2 657.94 905.93 651.55 903.68 649.73 905.47 646.62 903.74 646.97 905.81 644.8 905.81 643.86 903.27 641.69 904.54 641.92 908.35 639.11 905.81 636.06 906.51 634.12 904.66 634.41 897.62 631.01 898.37 630.19 901.54 627.9 901.6 626.43 899.52 627.55 896.81 625.49 896 624.61 897.56 624.03 894.56 626.9 893.52 624.73 889.95 622.38 890.81 622.68 893.93 615.58 893.75 615.05 890.87 610.41 891.68 607.19 889.2 607.3 887 601.38 884.99 594.57 885.91 591.46 880.95 585.65 879.45 586.3 877.02 587.24 873.73 587.12 873.68 586.83 873.33 585.65 872.06 585.59 866.18 584.13 863.58 582.19 863.52 582.01 857.93 582.43 856.72 588.23 848.75 595.16 847.72 598.56 847.2 Z" id="Chikkaballapura"/>
<path d="M 262.23 983.12 264.63 979.78 268.74 978.16 277.07 962.64 279.42 964.2 285.58 962.24 286.34 960.04 286.64 961.66 289.1 961.43 292.21 964.03 294.38 962.87 294.79 955.89 292.09 950.58 294.09 948.68 293.5 946.31 296.79 944.06 292.62 939.04 292.39 935.7 294.91 931.37 297.61 929.64 301.25 930.97 306 929.87 307.82 922.26 311.93 923.52 315.15 922.37 315.92 925.6 318.62 922.02 322.61 920.99 323.31 922.43 329.12 922.77 343.08 921.85 343.38 923.7 346.9 924.1 348.07 910.77 345.25 910.2 347.84 901.83 350.36 900.68 356.23 902.29 356.4 898.37 365.2 896.06 364.79 889.77 369.25 884.87 374.77 885.04 373.65 887.93 375.3 888.33 375.59 885.04 381.46 885.22 381.93 878.18 391.84 878.64 392.43 874.72 395.78 875 396.48 872.47 401.76 877.08 404.75 874.14 404.99 871.14 411.5 874.83 416.25 875 414.08 877.95 410.8 878.81 410.68 880.66 414.08 883.25 412.62 886.77 414.9 888.68 411.5 893.24 410.5 896.24 409.68 898.83 408.1 903.62 402 904.37 402 904.66 402 905.7 402.11 914.76 402.93 915.97 403.64 923.99 405.1 926.7 407.8 927.1 406.22 932.64 413.61 934.2 419.36 938.06 421.18 941.58 424.35 941.64 424.23 951.68 428.16 951.39 431.74 955.78 431.92 956.01 432.8 955.03 433.97 954.22 447.65 955.54 448.53 956.01 450.34 958.6 447.94 958.49 447.82 958.78 447.82 958.89 447.23 961.08 447.7 962.53 449.17 967.14 452.57 967.43 452.81 971.53 452.52 971.76 448.94 974.35 449.76 979.31 447.94 979.08 446.24 982.14 446.24 989.3 443.13 990.68 442.89 995.35 432.74 996.33 432.39 998.99 427.34 1002.51 429.1 1007.12 427.87 1009.49 427.28 1006.2 424.64 1008.68 421.18 1007.01 424.06 1003.89 419.54 999.51 415.9 999.22 415.9 993.39 413.79 992.24 412.91 995.87 408.92 995.64 408.33 998.12 405.99 998.58 405.75 1002.05 399.41 1002.28 399.71 1005.51 399.82 1005.85 402.46 1006.2 401.29 1010.53 403.81 1012.49 401 1015.72 404.58 1020.85 404.81 1021.14 403.05 1027.09 401.11 1029.22 401.17 1029.34 397.83 1032.91 398.59 1037.12 398.36 1037.12 394.78 1037.3 395.36 1035.1 393.72 1033.95 390.14 1036.14 390.08 1033.14 385.62 1035.51 384.04 1032.57 379.35 1031.24 376.94 1034.01 378.64 1035.28 374.53 1040.18 375.3 1043.12 367.49 1042.72 367.32 1048.49 364.09 1051.78 360.69 1052.07 360.92 1054.61 355.76 1049.99 356.52 1048.78 349.71 1047.22 348.54 1043.18 343.85 1044.28 343.79 1044.34 342.91 1044.51 339.09 1041.1 338.45 1043.7 334.93 1043.24 336.1 1045.6 333.81 1046.01 329.76 1037.59 331.41 1034.93 329.06 1033.78 331.23 1027.78 329.82 1025.64 329.82 1025.59 333.28 1024.37 334.28 1019.47 330.18 1017.8 328.59 1010.07 335.28 1006.49 334.99 1002.8 328.12 1002.28 328.06 1002.28 328.06 1002.22 326.24 998.64 324.72 1000.95 319.14 997.66 316.33 1000.49 316.33 1000.72 316.5 1004.53 318.85 1007.76 315.33 1009.03 315.62 1011.22 313.75 1012.55 314.74 1017.22 320.14 1020.39 320.38 1020.51 320.49 1025.18 320.38 1025.3 319.91 1025.59 318.79 1026.39 312.16 1026.45 311.05 1026.45 310.81 1026.45 306.35 1021.09 298.02 1025.99 289.57 1020.05 287.22 1020.57 281.36 1021.84 277.95 1022.59 275.49 1023.16 274.14 1020.45 278.54 1018.03 278.77 1017.28 279.48 1013.35 277.84 1011.28 276.6 1009.72 275.49 1008.39 272.09 1004.12 273.32 993.85 269.91 992.12 270.03 990.28 263.11 991.89 263.11 991.83 263.05 991.66 261.46 984.62 262.29 983.35 262.23 983.12 Z" id="Hassan"/>
<path d="M 683.64 924.56 683.58 924.56 684.17 920.7 687.34 920.35 688.22 917.81 692.38 917.47 693.97 914.29 697.14 914.76 697.84 918.04 703.42 918.85 704.35 916.14 711.4 913.2 718.85 917.18 719.32 914.24 714.45 910.89 718.32 909.97 718.5 905.7 721.78 905.99 721.72 904.72 720.43 901.54 716.79 901.66 717.21 899.75 719.2 896.35 727.47 893.58 730.11 888.85 732.4 884.64 730.23 877.31 728.41 877.14 731.23 874.6 730.23 869.41 730.82 868.2 730.11 867.5 729.94 867.39 731.93 865.25 733.69 863.41 736.39 864.1 737.21 862.08 741.15 864.91 752.94 862.72 766.38 864.04 766.43 864.16 765.5 869.58 761.51 877.95 762.8 897.79 759.86 904.02 767.61 907.37 764.79 908.99 763.03 907.26 761.98 909.33 766.26 912.27 771.01 909.45 773.18 909.97 773.89 913.54 780.81 911.24 780.11 914.76 786.27 916.66 789.49 920.87 790.73 917.12 794.72 917.01 795.42 912.85 797.71 918.45 798.59 918.45 799 919.2 798.24 921.39 795.54 929.01 797.71 930.45 792.66 932.7 792.6 934.54 797.24 935.06 797.94 938.53 792.66 939.1 791.72 943.03 786.8 944.87 790.61 949.43 785.45 951.97 786.33 957.22 777.06 960.51 777.35 967.26 779.28 969.68 777.99 972.62 772.3 971.53 772.77 974.58 768.02 977.87 769.37 982.08 772.77 980.76 777.88 984.97 777.52 991.83 774.12 983.81 768.19 985.37 765.79 982.83 764.03 984.68 758.22 978.68 755.34 985.37 752.47 985.6 751.94 988.2 754.88 989.07 750.71 990.1 750.53 993.28 742.73 991.66 739.85 992.93 738.68 1005.74 736.04 1010.64 718.91 1006.83 705.35 994.43 704.82 994.37 699.37 993.62 700.25 995.64 695.79 999.1 697.84 1001.18 696.84 1002.62 693.09 1002.22 691.62 997.43 688.81 997.83 688.98 995.12 686.63 993.51 684.46 994.26 684.58 999.51 681 998.64 681.41 993.8 684.4 991.43 684.76 991.08 682.29 990.39 683.76 988.83 683.52 988.55 683.35 988.31 682.7 987.62 679.24 989.47 672.79 991.26 671.44 991.26 668.91 987.51 670.62 983.41 666.68 982.08 666.68 982.03 672.2 979.31 671.14 972.85 674.9 966.68 676.01 958.95 679.83 959.58 682.41 956.06 684.76 956.01 684.4 953.35 683.06 955.08 679.77 953.87 677.6 950.01 680.12 947.06 683.99 949.03 684.35 946.03 687.28 945.16 686.81 939.74 688.69 934.6 687.63 929.41 685.4 930.22 688.92 924.91 683.64 924.56 Z" id="Kolar"/>
<path d="M 586.3 877.02 585.65 879.45 591.46 880.95 594.57 885.91 601.38 884.99 607.3 887 607.19 889.2 610.41 891.68 615.05 890.87 615.58 893.75 622.68 893.93 622.38 890.81 624.73 889.95 626.9 893.52 624.03 894.56 624.61 897.56 625.49 896 627.55 896.81 626.43 899.52 627.9 901.6 630.19 901.54 631.01 898.37 634.41 897.62 634.12 904.66 636.06 906.51 639.11 905.81 641.92 908.35 641.69 904.54 643.86 903.27 644.8 905.81 646.97 905.81 646.62 903.74 649.73 905.47 651.55 903.68 657.94 905.93 664.45 910.2 661.46 913.2 664.57 914.01 664.87 916.66 662.46 915.45 661.23 921.79 663.4 922.43 660.99 925.08 662.23 925.72 663.46 923.41 668.68 925.43 668.5 929.24 669.97 929.12 670.91 925.43 673.26 926.64 672.79 924.91 675.78 922.54 678.36 923.76 675.78 926.58 679.89 926.18 682.53 925.95 682.88 924.79 683.64 924.56 688.92 924.91 685.4 930.22 687.63 929.41 688.69 934.6 686.81 939.74 687.28 945.16 684.35 946.03 683.99 949.03 680.12 947.06 677.6 950.01 679.77 953.87 683.06 955.08 684.4 953.35 684.76 956.01 682.41 956.06 679.83 959.58 676.01 958.95 674.9 966.68 671.14 972.85 672.2 979.31 666.68 982.03 666.68 982.08 670.62 983.41 668.91 987.51 671.44 991.26 670.26 991.26 666.04 991.2 665.16 991.89 662.52 983.3 665.39 981.22 661.58 980.06 659.23 982.66 653.48 978.39 655.95 973.49 654.54 965.7 656.3 962.18 652.6 955.08 653.42 949.08 647.67 947.81 646.27 945.74 647.73 939.91 646.44 934.03 641.63 934.6 639.11 932.12 639.58 933.91 635.35 935.58 633.88 934.83 634.88 932.58 627.25 930.85 624.2 933.33 619.92 932.99 619.63 932.93 618.28 932.47 618.8 929.87 616.52 929.29 616.93 927.1 614.52 926.99 610.41 931.14 608.48 927.68 602.9 928.6 600.73 939.39 594.34 938.93 590.23 946.26 587.65 947.24 591.87 949.6 591.58 951.68 593.81 952.83 593.81 952.95 592.93 955.72 585.89 956.29 585.89 956.47 587.65 958.78 586.77 963.51 584.36 963.1 583.36 965.81 583.72 969.56 579.78 972.51 579.43 972.74 578.55 972.56 576.5 972.74 576.38 972.22 574.97 967.14 574.91 966.74 576.5 960.56 576.03 959.29 572.92 959.99 573.51 949.37 569.69 948.68 568.28 944.35 565.41 947.12 566.58 941.12 556.37 942.51 553.91 935.47 553.79 935.47 554.61 933.33 550.21 927.62 551.91 925.02 550.33 922.49 551.21 919.2 556.67 921.56 558.43 912.62 562.01 914.7 565.64 913.02 567.76 915.45 567.64 913.14 572.51 913.08 573.1 911.06 577.85 909.85 579.14 894.16 582.13 893.7 579.61 887.12 584.01 884.81 586.3 877.02 Z" id="Bengaluru Rural"/>
<path d="M 123.46 955.49 123.69 949.95 126.22 951.04 127.39 949.72 126.27 947.47 129.38 948.1 132.32 945.22 138.3 945.51 141.53 951.28 147.52 949.03 147.28 944.64 150.39 941.99 150.68 942.1 151.86 942.45 152.97 942.79 152.74 943.72 154.56 946.26 155.03 946.66 158.66 945.22 162.13 940.31 165.82 944.99 169.64 943.08 173.51 944.87 177.97 942.33 177.5 939.51 180.43 938.93 184.54 944.01 183.54 944.93 189.76 946.03 199.62 936.79 199.91 941.01 201.67 940.43 207.89 945.33 212.35 945.68 213.64 944.24 215.35 946.14 219.28 944.01 221.33 937.89 224.62 936.04 230.54 936.45 232.13 937.78 234.83 940.66 235.35 948.39 238.46 949.31 240.05 946.6 242.04 949.6 243.86 948.68 246.62 950.99 246.56 954.45 248.2 954.51 249.32 951.79 254.48 956.47 257.59 967.37 254.31 971.93 261.76 978.33 261.88 983.64 262.23 983.12 262.29 983.35 261.46 984.62 263.05 991.66 263.11 991.83 263.11 991.89 270.03 990.28 269.91 992.12 273.32 993.85 272.09 1004.12 275.49 1008.39 276.6 1009.72 277.84 1011.28 279.48 1013.35 278.77 1017.28 278.54 1018.03 274.14 1020.45 275.49 1023.16 277.95 1022.59 281.36 1021.84 276.96 1033.26 279.19 1035.85 279.83 1038.57 280.89 1042.89 282.06 1047.8 281.59 1048.14 280.95 1048.61 272.14 1055.07 267.92 1049.76 261.76 1056.62 263.46 1059.34 256.95 1056.97 256.01 1058.64 250.61 1059.74 250.02 1063.95 245.5 1061.82 245.04 1058.99 246.91 1056.97 240.17 1051.49 239.17 1054.2 237 1054.14 236.94 1056.91 230.84 1056.51 228.37 1058.3 229.13 1060.95 226.96 1063.09 222.8 1063.2 222.03 1056.91 217.11 1056.28 216.87 1052.82 212.82 1052.59 210.94 1048.09 211.36 1044.39 213.47 1044.28 214.52 1041.97 218.92 1043.76 220.8 1040.53 218.34 1040.7 212.53 1036.03 211.59 1036.14 205.25 1044.74 202.2 1044.74 200.15 1040.47 198.68 1041.1 200.21 1038.85 198.33 1036.78 198.92 1034.01 191.7 1035.39 187.53 1031.18 191.58 1026.45 189.76 1026.05 190.17 1024.55 186.71 1025.93 182.96 1024.78 181.84 1021.72 178.26 1020.45 178.26 1026.05 175.39 1027.78 171.4 1027.32 170.16 1023.8 172.86 1022.35 172.04 1017.97 163.3 1018.66 165.12 1016.41 160.01 1014.57 164.82 1009.43 163.71 1005.28 163.59 1005.22 162.83 1006.14 161.25 1004.53 161.13 1004.76 160.89 1006.66 160.07 1006.95 159.25 1007.24 157.55 1007.82 156.73 1007.18 151.27 1007.12 142.29 1011.8 139.89 1010.93 139.18 1010.7 131.85 995.35 123.46 955.49 Z" id="Dakshina Kannada"/>
<path d="M 576.5 972.74 578.55 972.56 579.43 972.74 579.78 972.51 583.72 969.56 583.36 965.81 584.36 963.1 586.77 963.51 587.65 958.78 585.89 956.47 585.89 956.29 592.93 955.72 593.81 952.95 593.81 952.83 591.58 951.68 591.87 949.6 587.65 947.24 590.23 946.26 594.34 938.93 600.73 939.39 602.9 928.6 608.48 927.68 610.41 931.14 614.52 926.99 616.93 927.1 616.52 929.29 618.8 929.87 618.28 932.47 619.63 932.93 619.92 932.99 624.2 933.33 627.25 930.85 634.88 932.58 633.88 934.83 635.35 935.58 639.58 933.91 639.11 932.12 641.63 934.6 646.44 934.03 647.73 939.91 646.27 945.74 647.67 947.81 653.42 949.08 652.6 955.08 656.3 962.18 654.54 965.7 655.95 973.49 653.48 978.39 659.23 982.66 661.58 980.06 665.39 981.22 662.52 983.3 665.16 991.89 662.46 994.08 660.58 995.01 659.47 994.49 658.41 996.05 658.35 996.1 658.29 996.16 661.4 998.07 659.58 1002.74 661.17 1004.24 655.89 1009.37 658.47 1012.55 658.41 1012.66 653.13 1014.85 652.78 1016.53 655.13 1017.1 652.9 1021.84 648.55 1021.78 648.85 1026.22 648.73 1026.22 643.98 1024.37 642.39 1028.24 638.11 1028.41 637.76 1025.01 634.82 1024.26 624.32 1027.09 626.9 1019.76 623.15 1017.45 618.39 1021.2 616.46 1015.95 618.69 1016.12 619.92 1012.26 623.26 1012.08 623.73 1009.72 622.74 1008.45 620.74 1005.91 618.04 1010.93 617.1 1006.43 617.57 1005.91 616.87 1005.22 615.4 1003.83 615.05 1003.55 614.99 1003.89 614.29 1007.93 615.75 1008.57 613.7 1012.49 612.53 1011.45 610.24 1015.66 608.89 1012.49 607.3 1015.66 601.79 1011.28 602.49 1006.95 601.03 1004.53 603.72 1003.55 602.9 1002.1 597.86 1000.43 595.1 1001.82 594.63 999.51 592.17 998.99 595.45 994.78 593.46 994.72 591.99 991.32 594.04 990.28 590.58 990.05 585.07 993.91 582.6 990.97 577.2 989.76 576.91 988.08 578.67 988.03 577.97 978.1 576.5 972.74 Z" id="Bengaluru Urban"/>
<path d="M 281.36 1021.84 287.22 1020.57 289.57 1020.05 298.02 1025.99 306.35 1021.09 310.81 1026.45 311.05 1026.45 312.16 1026.45 318.79 1026.39 319.91 1025.59 320.38 1025.3 320.49 1025.18 320.38 1020.51 320.14 1020.39 314.74 1017.22 313.75 1012.55 315.62 1011.22 315.33 1009.03 318.85 1007.76 316.5 1004.53 316.33 1000.72 316.33 1000.49 319.14 997.66 324.72 1000.95 326.24 998.64 328.06 1002.22 328.06 1002.28 328.12 1002.28 334.99 1002.8 335.28 1006.49 328.59 1010.07 330.18 1017.8 334.28 1019.47 333.28 1024.37 329.82 1025.59 329.82 1025.64 331.23 1027.78 329.06 1033.78 331.41 1034.93 329.76 1037.59 333.81 1046.01 336.1 1045.6 334.93 1043.24 338.45 1043.7 339.09 1041.1 342.91 1044.51 343.79 1044.34 342.67 1047.22 339.04 1045.84 339.15 1046.07 340.27 1048.43 337.51 1049.7 339.39 1052.93 336.1 1053.34 333.05 1058.53 335.4 1065.57 335.4 1065.68 334.05 1066.09 327.89 1067.59 327.71 1067.99 324.42 1074.57 324.25 1074.91 324.6 1075.26 326.65 1077.39 333.46 1084.55 340.68 1086.91 339.5 1089.22 343.03 1093.66 344.84 1101.39 351.47 1101.34 358.52 1110.57 364.09 1111.55 366.03 1118.13 370.78 1124.47 374.01 1136.65 372.89 1139.76 367.43 1142.07 367.26 1142.24 367.08 1142.42 360.63 1149.05 352.88 1151.36 341.03 1157.7 329.29 1155.86 329.24 1156.03 317.44 1154.01 313.33 1148.7 310.23 1148.24 309.05 1143.22 305.18 1138.95 304.01 1135.84 303.95 1135.67 303.95 1135.61 305.47 1131.45 296.79 1130.36 289.86 1133.01 290.45 1130.36 287.63 1129.15 287.87 1126.32 280.48 1128.05 278.19 1126.26 275.9 1119.22 272.97 1117.9 268.21 1119.45 265.45 1117.72 261.11 1111.49 257.59 1109.99 258.82 1107.28 249.14 1094.13 236.59 1094.18 236.64 1094.07 239.46 1091.07 239.7 1090.78 235.94 1083.97 237.88 1079.41 230.37 1075.95 228.02 1072.49 228.02 1064.36 228.08 1064.36 232.89 1065.45 238.05 1061.7 237.7 1059.16 236.94 1056.91 237 1054.14 239.17 1054.2 240.17 1051.49 246.91 1056.97 245.04 1058.99 245.5 1061.82 250.02 1063.95 250.61 1059.74 256.01 1058.64 256.95 1056.97 263.46 1059.34 261.76 1056.62 267.92 1049.76 272.14 1055.07 280.95 1048.61 281.59 1048.14 282.06 1047.8 280.89 1042.89 279.83 1038.57 279.19 1035.85 276.96 1033.26 281.36 1021.84 Z" id="Kodagu"/>
<path d="M 413.85 1188.28 413.91 1188.28 415.43 1185.22 415.43 1185.17 413.73 1183.15 416.49 1181.76 413.14 1178.99 422.41 1182.28 423.59 1177.61 427.81 1177.03 427.58 1170.17 435.26 1167.97 438.61 1170.57 439.2 1164.17 442.72 1159.09 439.31 1154.59 443.01 1147.61 454.45 1148.53 455.92 1144.09 463.61 1145.42 465.48 1148.13 467.65 1148.18 471.82 1143.86 481.21 1147.95 480.91 1143.63 484.38 1140.74 485.9 1140.68 486.08 1143.57 488.78 1145.53 492.36 1145.59 497.05 1142.76 497.52 1145.3 500.81 1145.7 506.44 1143.17 506.97 1140.86 502.74 1140.92 498.4 1135.2 491.83 1134.92 494.76 1134.34 497.23 1130.88 495.94 1125.11 490.42 1125.45 487.9 1122.11 489.54 1117.84 491.83 1117.26 490.42 1115.82 491.48 1113.8 495 1114.66 495 1120.43 498.46 1124.07 508.73 1128.22 515.89 1120.61 516.53 1114.38 516.65 1114.38 518.47 1117.15 520.29 1116.57 520.64 1121.76 520.64 1121.82 524.34 1120.84 524.86 1122.74 525.74 1115.53 532.78 1111.66 539.47 1110.57 541.59 1105.43 541.59 1105.32 541.29 1104.86 539.77 1102.49 537.01 1102.84 547.92 1099.43 547.34 1090.55 557.72 1091.7 565.29 1089.8 571.45 1092.57 575.62 1091.01 575.74 1090.95 579.2 1095.45 583.54 1095.68 591.4 1094.88 593.46 1094.64 594.1 1094.59 594.45 1095.34 597.27 1101.16 601.32 1102.32 601.55 1102.61 602.61 1102.95 602.49 1103.76 601.5 1108.66 601.55 1108.66 601.73 1108.78 607.36 1110.34 612.64 1109.99 615.81 1109.7 625.73 1109.01 625.9 1108.95 626.08 1108.95 626.61 1109.07 646.62 1113.34 647.26 1113.51 647.5 1113.57 650.2 1117.9 650.72 1120.95 655.48 1125.63 643.51 1139.13 637.58 1154.01 633.65 1153.55 628.43 1155.34 621.86 1156.26 617.28 1155.8 613.17 1157.47 605.54 1155.45 605.49 1155.57 604.02 1165.49 599.62 1163.24 600.56 1172.65 593.57 1187.94 587.71 1183.15 582.48 1182.69 581.72 1184.59 577.2 1186.09 569.87 1179.4 568.87 1180.9 562.06 1178.65 560.07 1181.94 537.42 1185.69 538.65 1194.97 532.02 1192.32 527.8 1186.32 530.14 1184.13 528.97 1182.69 526.04 1183.15 523.98 1186.32 522.93 1185.45 524.63 1182.05 520.05 1178.36 514.6 1178.94 512.42 1185.05 509.61 1182.4 501.45 1181.82 497.99 1192.72 493.41 1196.76 488.54 1206.63 488.48 1209.46 492.65 1213.96 490.66 1217.42 486.55 1215.11 474.7 1213.15 449.35 1215.11 445.47 1213.15 442.72 1213.84 439.72 1212.46 438.08 1203.28 431.22 1197.8 425.88 1200.05 421.71 1205.01 414.43 1203.74 414.38 1203.74 414.32 1203.63 412.15 1197.22 411.97 1196.76 416.25 1194.11 413.26 1191.22 413.26 1191.17 413.85 1188.28 Z" id="Chamarajanagara"/>
<path d="M 532.08 955.72 532.08 955.66 532.37 955.14 532.37 955.08 532.43 955.2 532.49 955.37 532.55 955.6 532.08 955.72 Z M 403.05 865.43 406.69 863 408.33 865.89 411.32 862.72 413.73 865.66 416.78 863 421.18 863.41 422.18 858.45 429.16 857.93 435.15 852.79 434.38 850.08 436.2 850.6 442.72 845.81 441.43 841.48 450.58 838.02 452.16 841.66 459.79 840.73 461.96 845.75 461.84 838.77 464.25 831.39 468.83 826.37 470.12 829.08 473.29 829.77 476.04 829.54 476.81 827.18 476.4 819.96 468.65 808.89 473.87 807.44 473.35 805.71 476.04 804.27 485.08 805.77 484.32 802.14 491.18 797.35 490.95 794.35 486.49 791.87 488.95 787.66 495.23 789.21 498.05 782.35 501.86 779.46 504.15 780.73 505.09 777.04 508.61 774.1 508.67 774.56 513.07 776.06 512.95 780.16 505.79 781.31 505.56 785.52 517.7 792.56 516.71 797.52 525.16 802.66 526.15 807.44 521.87 808.14 520.29 815.64 516.41 817.66 513.89 821.58 513.6 823.25 515.94 824.06 515.18 827.98 517.53 836 520.7 837.21 522.11 830 525.51 830.29 529.26 836.29 532.96 836.52 533.84 832.14 548.45 833.06 549.45 829.37 545.75 825.27 547.69 821.06 540.53 816.33 543.99 814.19 547.69 814.89 546.52 807.44 550.56 804.16 551.62 806.46 549.98 813.96 553.32 815.18 555.61 811.02 556.78 814.31 559.6 807.85 561.83 808.37 561.48 814.31 563.77 815.12 563.3 818.06 568.93 817.89 573.04 814.54 575.5 820.43 582.07 816.73 585.53 819.33 594.51 818.64 591.64 824.75 591.75 824.81 591.58 825.16 593.16 825.96 592.75 826.48 594.86 826.83 595.1 826.89 595.28 826.89 596.74 824.35 599.97 825.21 598.74 828.33 601.26 833.75 600.26 842.12 597.62 842.12 598.39 846.5 598.56 847.2 595.16 847.72 588.23 848.75 582.43 856.72 582.01 857.93 582.19 863.52 584.13 863.58 585.59 866.18 585.65 872.06 586.83 873.33 587.12 873.68 587.24 873.73 586.3 877.02 584.01 884.81 579.61 887.12 582.13 893.7 579.14 894.16 577.85 909.85 573.1 911.06 572.51 913.08 567.64 913.14 567.76 915.45 565.64 913.02 562.01 914.7 558.43 912.62 556.67 921.56 551.21 919.2 550.33 922.49 551.91 925.02 550.21 927.62 554.61 933.33 553.79 935.47 553.73 935.76 552.62 935.53 547.51 934.37 546.57 934.14 543.99 937.31 542.35 936.62 538.89 939.45 538.36 945.1 534.78 942.33 534.13 944.12 532.55 944.53 530.79 946.2 532.14 952.2 529.91 956.12 531.49 957.85 530.14 961.08 538.77 965.58 535.19 968.3 536.48 969.51 540.76 968.99 539.88 967.08 541.65 967.26 543.46 970.37 540.82 972.1 545.69 975.62 547.1 980.76 545.81 983.53 542.58 982.72 541.29 986.3 536.77 986.93 538.83 988.78 541.12 988.03 541.06 993.16 544.23 995.01 544.29 998.24 545.93 998.82 543.29 1001.12 544.58 1005.1 544.29 1005.62 544.4 1005.97 543.93 1006.2 540.3 1008.05 539.83 1008.28 539.71 1008.28 539.3 1008.22 535.07 1007.87 534.19 1012.03 532.02 1010.93 531.55 1012.66 531.38 1013.3 529.73 1011.05 526.45 1012.95 525.51 1007.53 522.28 1010.18 519.41 1010.01 519.52 1006.78 517.47 1007.93 513.48 1005.22 513.01 1003.03 504.39 1002.97 498.69 995.3 498.11 986.35 493.94 985.03 494.23 982.6 499.4 982.31 498.58 980.12 493.41 980.99 489.36 977.81 489.36 972.91 491.71 971.99 484.9 965.76 479.8 965.47 477.45 962.35 476.75 962.06 463.43 961.66 459.79 958.37 456.56 966.05 456.15 966.91 453.87 966.97 452.57 967.43 449.17 967.14 447.7 962.53 447.23 961.08 447.82 958.89 447.82 958.78 447.94 958.49 450.34 958.6 448.53 956.01 447.65 955.54 433.97 954.22 432.8 955.03 431.92 956.01 431.74 955.78 428.16 951.39 424.23 951.68 424.35 941.64 421.18 941.58 419.36 938.06 413.61 934.2 406.22 932.64 407.8 927.1 405.1 926.7 403.64 923.99 402.93 915.97 402.11 914.76 402 905.7 402 904.66 402 904.37 408.1 903.62 409.68 898.83 410.5 896.24 411.5 893.24 414.9 888.68 412.62 886.77 414.08 883.25 410.68 880.66 410.8 878.81 414.08 877.95 416.25 875 411.5 874.83 404.99 871.14 403.05 865.43 Z M 518.29 755.75 517.65 750.21 518.76 749.69 518.82 749.06 521.17 748.54 526.57 747.44 527.27 747.5 532.2 752.87 535.66 752.35 536.95 751.6 538.18 750.9 538.48 750.73 539.18 744.21 538.24 743.75 538.3 740.92 539.53 737.81 541.59 732.62 542.23 731.06 545.93 730.31 546.46 730.25 552.79 733.89 560.01 734.58 568.64 730.54 568.05 740.75 582.31 741.96 581.55 749.35 585.01 750.67 587.41 755.58 591.99 753.79 591.93 753.44 591.93 752.17 591.87 750.79 590.29 744.79 586.47 742.83 584.89 737.17 586.77 731.81 590.35 731.17 593.75 732.56 594.28 735.39 596.92 734.58 597.62 741.1 602.73 739.08 606.13 741.44 607.07 744.79 605.19 749.92 607.3 756.44 609.48 757.89 607.07 763.02 600.61 760.37 587.59 759.96 585.01 766.77 580.14 767.64 580.14 767.81 579.43 772.48 587.06 768.39 588.88 769.83 581.72 779.75 578.2 780.21 576.73 785.41 587 787.89 585.48 795.1 593.34 793.31 595.45 795.21 594.98 800.18 590.87 800.52 591.52 804.33 594.92 805.94 588.53 810.68 588.35 807.44 581.08 807.85 579.49 805.77 583.66 799.25 579.78 798.27 581.84 792.5 577.44 791.69 574.91 785.52 572.16 785.17 566.58 788.87 567.23 785.12 565.76 784.77 561.3 788.75 548.63 788.58 548.45 790.66 544.34 790.66 544.23 790.6 540.41 782.52 531.79 783.33 531.32 781.42 522.81 779.87 522.75 779.75 523.1 775.25 520.4 773.06 522.46 768.67 522.4 759.85 521.58 757.37 518.29 755.75 Z" fill-rule="evenodd" id="Tumakuru"/>
<path d="M 553.79 935.47 553.91 935.47 556.37 942.51 566.58 941.12 565.41 947.12 568.28 944.35 569.69 948.68 573.51 949.37 572.92 959.99 576.03 959.29 576.5 960.56 574.91 966.74 574.97 967.14 576.38 972.22 576.5 972.74 577.97 978.1 578.67 988.03 576.91 988.08 577.2 989.76 582.6 990.97 585.07 993.91 590.58 990.05 594.04 990.28 591.99 991.32 593.46 994.72 595.45 994.78 592.17 998.99 594.63 999.51 595.1 1001.82 597.86 1000.43 602.9 1002.1 603.72 1003.55 601.03 1004.53 602.49 1006.95 601.79 1011.28 607.3 1015.66 608.89 1012.49 610.24 1015.66 612.53 1011.45 613.7 1012.49 615.75 1008.57 614.29 1007.93 614.99 1003.89 615.05 1003.55 615.4 1003.83 616.87 1005.22 617.57 1005.91 617.1 1006.43 618.04 1010.93 620.74 1005.91 622.74 1008.45 623.73 1009.72 623.26 1012.08 619.92 1012.26 618.69 1016.12 616.46 1015.95 618.39 1021.2 623.15 1017.45 626.9 1019.76 624.32 1027.09 623.97 1027.2 624.09 1027.78 623.73 1028.76 625.2 1034.07 624.73 1034.47 622.68 1036.32 622.62 1036.43 622.5 1037.07 620.86 1046.59 620.68 1047.68 621.91 1054.26 627.08 1055.24 621.27 1060.61 625.49 1061.24 628.84 1057.49 630.31 1058.99 630.25 1059.57 627.31 1079.13 626.96 1080.39 620.39 1085.99 615.58 1093.89 612.29 1093.84 609.71 1096.03 604.25 1095.8 602.73 1097.41 601.32 1102.32 597.27 1101.16 594.45 1095.34 594.1 1094.59 593.46 1094.64 591.4 1094.88 583.54 1095.68 579.2 1095.45 575.74 1090.95 575.62 1091.01 575.5 1090.84 576.38 1081.32 573.33 1075.95 568.52 1075.84 568.34 1069.49 565.7 1068.57 565.53 1063.09 559.66 1062.16 559.48 1059.8 557.78 1061.41 559.95 1056.86 557.55 1056.39 555.61 1059.51 547.63 1059.45 543.87 1063.61 540.06 1059.97 541.12 1053.57 538.07 1047.39 540.47 1047.39 540.59 1044.45 536.95 1037.64 539.47 1034.93 535.6 1033.72 535.07 1026.05 535.07 1025.7 530.85 1024.84 532.08 1013.12 531.73 1012.83 531.55 1012.66 532.02 1010.93 534.19 1012.03 535.07 1007.87 539.3 1008.22 539.71 1008.28 539.83 1008.28 540.3 1008.05 543.93 1006.2 544.4 1005.97 544.29 1005.62 544.58 1005.1 543.29 1001.12 545.93 998.82 544.29 998.24 544.23 995.01 541.06 993.16 541.12 988.03 538.83 988.78 536.77 986.93 541.29 986.3 542.58 982.72 545.81 983.53 547.1 980.76 545.69 975.62 540.82 972.1 543.46 970.37 541.65 967.26 539.88 967.08 540.76 968.99 536.48 969.51 535.19 968.3 538.77 965.58 530.14 961.08 531.49 957.85 529.91 956.12 532.14 952.2 530.79 946.2 532.55 944.53 534.13 944.12 534.78 942.33 538.36 945.1 538.89 939.45 542.35 936.62 543.99 937.31 546.57 934.14 547.51 934.37 552.62 935.53 553.73 935.76 553.79 935.47 Z M 532.08 955.72 532.55 955.6 532.49 955.37 532.43 955.2 532.37 955.08 532.37 955.14 532.08 955.66 532.08 955.72 Z" fill-rule="evenodd" id="Ramanagara"/>
<path d="M 512.54 1100.24 512.42 1096.95 514.6 1097.59 514.65 1100.18 512.54 1100.24 Z M 499.75 1082.24 499.87 1079.24 503.15 1078.09 503.33 1079.7 502.45 1081.95 499.75 1082.24 Z M 401.17 1029.34 401.11 1029.22 403.05 1027.09 404.81 1021.14 404.58 1020.85 401 1015.72 403.81 1012.49 401.29 1010.53 402.46 1006.2 399.82 1005.85 399.71 1005.51 399.41 1002.28 405.75 1002.05 405.99 998.58 408.33 998.12 408.92 995.64 412.91 995.87 413.79 992.24 415.9 993.39 415.9 999.22 419.54 999.51 424.06 1003.89 421.18 1007.01 424.64 1008.68 427.28 1006.2 427.87 1009.49 429.1 1007.12 427.34 1002.51 432.39 998.99 432.74 996.33 442.89 995.35 443.13 990.68 446.24 989.3 446.24 982.14 447.94 979.08 449.76 979.31 448.94 974.35 452.52 971.76 452.81 971.53 452.57 967.43 453.87 966.97 456.15 966.91 456.56 966.05 459.79 958.37 463.43 961.66 476.75 962.06 477.45 962.35 479.8 965.47 484.9 965.76 491.71 971.99 489.36 972.91 489.36 977.81 493.41 980.99 498.58 980.12 499.4 982.31 494.23 982.6 493.94 985.03 498.11 986.35 498.69 995.3 504.39 1002.97 513.01 1003.03 513.48 1005.22 517.47 1007.93 519.52 1006.78 519.41 1010.01 522.28 1010.18 525.51 1007.53 526.45 1012.95 529.73 1011.05 531.38 1013.3 531.55 1012.66 531.73 1012.83 532.08 1013.12 530.85 1024.84 535.07 1025.7 535.07 1026.05 535.6 1033.72 539.47 1034.93 536.95 1037.64 540.59 1044.45 540.47 1047.39 538.07 1047.39 541.12 1053.57 540.06 1059.97 543.87 1063.61 547.63 1059.45 555.61 1059.51 557.55 1056.39 559.95 1056.86 557.78 1061.41 559.48 1059.8 559.66 1062.16 565.53 1063.09 565.7 1068.57 568.34 1069.49 568.52 1075.84 573.33 1075.95 576.38 1081.32 575.5 1090.84 575.62 1091.01 571.45 1092.57 565.29 1089.8 557.72 1091.7 547.34 1090.55 547.92 1099.43 537.01 1102.84 536.6 1106.41 531.61 1106.3 531.73 1103.59 524.22 1104.34 516.94 1102.55 516.12 1094.64 512.78 1094.01 513.72 1091.07 516.53 1092.22 517.41 1090.03 515.42 1086.39 513.66 1087.38 513.72 1082.93 510.02 1083.05 510.25 1087.55 503.92 1088.47 505.74 1085.53 504.33 1082.88 506.97 1082.99 506.73 1074.51 504.03 1067.18 500.92 1068.11 500.1 1073.01 496.05 1074.62 491.95 1073.07 488.07 1074.16 488.19 1077.34 484.9 1076.88 482.85 1082.53 476.22 1083.39 475.93 1090.26 474.17 1091.93 472.29 1089.11 470.18 1089.39 470 1084.78 467.95 1082.3 464.6 1083.34 461.38 1080.45 461.55 1076.18 456.15 1075.61 455.16 1075.49 454.57 1075.43 450.76 1080.34 440.84 1083.11 440.9 1077.8 438.9 1076.01 440.72 1074.74 441.07 1070.01 420.6 1059.74 420.65 1055.87 415.43 1051.09 416.31 1049.36 413.38 1046.59 409.8 1047.57 410.74 1043.87 407.28 1043.3 404.75 1034.07 401.23 1029.28 401.17 1029.34 Z" fill-rule="evenodd" id="Mandya"/>
<path d="M 343.79 1044.34 343.85 1044.28 348.54 1043.18 349.71 1047.22 356.52 1048.78 355.76 1049.99 360.92 1054.61 360.69 1052.07 364.09 1051.78 367.32 1048.49 367.49 1042.72 375.3 1043.12 374.53 1040.18 378.64 1035.28 376.94 1034.01 379.35 1031.24 384.04 1032.57 385.62 1035.51 390.08 1033.14 390.14 1036.14 393.72 1033.95 395.36 1035.1 394.78 1037.3 398.36 1037.12 398.59 1037.12 397.83 1032.91 401.17 1029.34 401.23 1029.28 404.75 1034.07 407.28 1043.3 410.74 1043.87 409.8 1047.57 413.38 1046.59 416.31 1049.36 415.43 1051.09 420.65 1055.87 420.6 1059.74 441.07 1070.01 440.72 1074.74 438.9 1076.01 440.9 1077.8 440.84 1083.11 450.76 1080.34 454.57 1075.43 455.16 1075.49 456.15 1075.61 461.55 1076.18 461.38 1080.45 464.6 1083.34 467.95 1082.3 470 1084.78 470.18 1089.39 472.29 1089.11 474.17 1091.93 475.93 1090.26 476.22 1083.39 482.85 1082.53 484.9 1076.88 488.19 1077.34 488.07 1074.16 491.95 1073.07 496.05 1074.62 500.1 1073.01 500.92 1068.11 504.03 1067.18 506.73 1074.51 506.97 1082.99 504.33 1082.88 505.74 1085.53 503.92 1088.47 510.25 1087.55 510.02 1083.05 513.72 1082.93 513.66 1087.38 515.42 1086.39 517.41 1090.03 516.53 1092.22 513.72 1091.07 512.78 1094.01 516.12 1094.64 516.94 1102.55 524.22 1104.34 531.73 1103.59 531.61 1106.3 536.6 1106.41 537.01 1102.84 539.77 1102.49 541.29 1104.86 541.59 1105.32 541.59 1105.43 539.47 1110.57 532.78 1111.66 525.74 1115.53 524.86 1122.74 524.34 1120.84 520.64 1121.82 520.64 1121.76 520.29 1116.57 518.47 1117.15 516.65 1114.38 516.53 1114.38 515.89 1120.61 508.73 1128.22 498.46 1124.07 495 1120.43 495 1114.66 491.48 1113.8 490.42 1115.82 491.83 1117.26 489.54 1117.84 487.9 1122.11 490.42 1125.45 495.94 1125.11 497.23 1130.88 494.76 1134.34 491.83 1134.92 498.4 1135.2 502.74 1140.92 506.97 1140.86 506.44 1143.17 500.81 1145.7 497.52 1145.3 497.05 1142.76 492.36 1145.59 488.78 1145.53 486.08 1143.57 485.9 1140.68 484.38 1140.74 480.91 1143.63 481.21 1147.95 471.82 1143.86 467.65 1148.18 465.48 1148.13 463.61 1145.42 455.92 1144.09 454.45 1148.53 443.01 1147.61 439.31 1154.59 442.72 1159.09 439.2 1164.17 438.61 1170.57 435.26 1167.97 427.58 1170.17 427.81 1177.03 423.59 1177.61 422.41 1182.28 413.14 1178.99 416.49 1181.76 413.73 1183.15 415.43 1185.17 415.43 1185.22 413.91 1188.28 413.85 1188.28 402.93 1191.92 401.76 1191.51 396.95 1189.61 395.01 1183.67 390.14 1178.76 383.98 1180.44 380.11 1179.51 377.64 1176.11 377.23 1170.05 374.24 1168.38 368.14 1168.55 361.74 1172.07 360.45 1170.63 360.39 1149.28 360.63 1149.05 367.08 1142.42 367.26 1142.24 367.43 1142.07 372.89 1139.76 374.01 1136.65 370.78 1124.47 366.03 1118.13 364.09 1111.55 358.52 1110.57 351.47 1101.34 344.84 1101.39 343.03 1093.66 339.5 1089.22 340.68 1086.91 333.46 1084.55 326.65 1077.39 324.6 1075.26 324.25 1074.91 324.42 1074.57 327.71 1067.99 327.89 1067.59 334.05 1066.09 335.4 1065.68 335.4 1065.57 333.05 1058.53 336.1 1053.34 339.39 1052.93 337.51 1049.7 340.27 1048.43 339.15 1046.07 339.04 1045.84 342.67 1047.22 343.79 1044.34 Z M 512.54 1100.24 514.65 1100.18 514.6 1097.59 512.42 1096.95 512.54 1100.24 Z M 499.75 1082.24 502.45 1081.95 503.33 1079.7 503.15 1078.09 499.87 1079.24 499.75 1082.24 Z" fill-rule="evenodd" id="Mysuru"/>
<path d="M 353.82 199.24 353.41 199.24 353.29 199.64 352 203.51 352.24 203.68 358.11 207.26 358.05 207.43 357.28 209.85 356.17 213.2 356.17 213.31 363.09 215.45 372.72 224.74 373.83 225.83 379.58 226.01 383.34 231.89 383.51 232.12 384.1 232.12 385.92 232.12 387.27 232.12 389.56 229.18 399.59 228.6 403.64 225.43 405.87 229.29 404.28 234.03 410.44 233.51 409.86 235.7 404.69 238.29 409.68 241.64 409.27 246.03 411.09 246.49 416.61 241.24 416.25 249.37 418.6 259.47 417.9 262.12 411.44 262.93 411.21 270.37 416.37 271.76 417.43 268.93 421.77 271.64 423 276.14 417.37 277.01 417.31 279.83 418.13 282.32 421.77 282.49 424 287.45 416.61 287.74 416.55 285.37 406.87 283.93 402.93 290.85 413.85 291.95 413.2 294.55 407.39 294.03 406.22 299.91 417.78 300.66 418.54 304.64 416.55 305.39 415.43 309.09 418.66 309.66 420.01 308.28 420.65 308.16 422.18 310.12 422.3 310.12 422.41 310.59 420.65 309.55 415.9 312.89 412.26 322.18 417.43 344.22 417.66 358.59 417.54 358.59 409.68 358.53 408.8 360.72 403.87 361.36 399.35 360.49 399.53 366.43 399.53 366.84 395.54 365.86 394.72 368.63 396.19 374.97 392.31 377.45 394.19 379.64 393.6 385.99 402.17 386.97 403.05 394.47 399.35 401.63 399.24 401.8 393.31 403.41 390.2 409.13 383.1 406.99 382.75 406.93 374.83 404.57 370.6 403.47 365.15 404.11 352.47 399.38 352.35 399.15 351.71 397.82 350.71 395.86 351.89 394.01 352.06 389.74 345.14 382.88 332.7 383.51 306.82 370.53 290.98 366.89 275.49 357.49 269.44 357.03 264.22 363.2 263.93 362.91 263.58 362.57 261.88 360.89 261.05 355.36 257.94 353.62 251.67 355.76 251.55 359.86 249.85 361.7 249.61 361.99 249.49 362.16 242.75 362.91 242.57 362.8 242.28 362.45 239.87 359.8 240.22 359.34 245.27 352.18 243.92 346.36 249.32 346.01 249.73 337.76 246.91 336.32 250.67 331.01 245.09 325.82 240.75 312.49 249.73 313.07 250.38 304.24 237.94 300.14 234.94 300.43 231.31 300.83 230.31 290.1 233.18 283.12 222.68 282.03 223.74 266.68 224.32 266.39 232.65 262.41 238.99 264.83 241.46 262.01 245.68 260.97 248.85 263.16 250.08 268.58 257.01 264.31 263.81 264.95 264.75 257.16 270.74 258.08 270.91 264.03 275.55 264.14 277.01 266.97 282.82 264.89 281.24 262.47 281.88 252.14 276.84 252.2 278.48 248.74 283.18 247.3 282.35 238.29 278.48 238.35 278.31 235.06 274.02 228.03 274.61 225.43 276.6 225.37 280.53 220.81 279.77 212.22 279.13 210.31 274.49 210.26 273.49 206.56 270.33 204.77 271.32 197.68 266.16 196.58 264.99 190.93 271.97 189.37 270.74 184.35 275.37 174.25 283 178 283.12 178.41 285.64 186.25 289.45 186.54 293.21 184.41 298.84 186.95 299.14 187.52 300.07 190.47 300.72 190.99 303.24 192.89 303.77 193.35 303.95 193.29 306.18 192.95 307.41 192.77 307.47 192.66 308.82 184.18 314.04 186.08 315.8 190.52 319.97 184.75 321.67 187.76 321.08 195.66 328.18 201.66 340.15 198.95 342.91 196.29 351.24 195.95 351.65 196.47 353.82 199.24 Z" id="Vijayapura"/>
</g>
</svg>